<?xml version="1.0" encoding="utf-8"?>
<!-- Generator: Adobe Illustrator 27.5.0, SVG Export Plug-In . SVG Version: 6.00 Build 0)  -->
<svg version="1.1" id="Layer_1" xmlns="http://www.w3.org/2000/svg" xmlns:xlink="http://www.w3.org/1999/xlink" x="0px" y="0px"
	 viewBox="0 0 2122 2122" style="enable-background:new 0 0 2122 2122;" xml:space="preserve">
<g>
	<rect style="fill:#FFFFFF;" width="2121.32" height="2121.32"/>
	<g>
		<g>
			<path style="fill:#003942;" d="M732.927,1084.644V960.7h-44.863v123.944h-36.498V811.667h36.498v115.96h44.863v-115.96h36.505
				v272.977H732.927z"/>
			<path style="fill:#003942;" d="M815.05,1084.644V811.667h90.482v33.074h-53.984v82.885h47.906V960.7h-47.906v90.87h53.984v33.074
				H815.05z"/>
			<path style="fill:#003942;" d="M977.772,1084.644h-36.504V858.429c0-31.175,14.573-46.763,43.727-46.763h27.377
				c29.139,0,43.719,15.587,43.719,46.763v226.214h-36.497v-99.991h-41.821V1084.644z M1019.593,951.579v-90.87
				c0-10.646-5.323-15.968-15.969-15.968h-9.883c-10.646,0-15.969,5.322-15.969,15.968v90.87H1019.593z"/>
			<path style="fill:#003942;" d="M1186.493,1084.644h-86.683V811.667h36.498v239.903h50.186V1084.644z"/>
			<path style="fill:#003942;" d="M1257.971,844.741v239.903h-36.498V844.741h-34.98v-33.074h106.458v33.074H1257.971z"/>
			<path style="fill:#003942;" d="M1406.623,1084.644V960.7h-44.863v123.944h-36.498V811.667h36.498v115.96h44.863v-115.96h36.498
				v272.977H1406.623z"/>
		</g>
		<g>
			<path style="fill:#003942;" d="M884.816,1329.373v17.494c0,30.923-14.573,46.38-43.719,46.38h-23.572
				c-29.153,0-43.727-15.458-43.727-46.38v-180.215c0-30.916,14.573-46.381,43.727-46.381h23.572
				c29.146,0,43.719,15.465,43.719,46.381v30.8h-36.498v-28.139c0-10.646-5.452-15.969-16.35-15.969h-7.222
				c-9.631,0-14.443,5.323-14.443,15.969v174.892c0,10.646,4.812,15.969,14.443,15.969h9.128c9.624,0,14.443-5.323,14.443-15.969
				v-14.832H884.816z"/>
			<path style="fill:#003942;" d="M959.336,1393.247h-36.498v-226.214c0-31.175,14.573-46.762,43.72-46.762h27.377
				c29.146,0,43.719,15.587,43.719,46.762v226.214h-36.498v-99.991h-41.82V1393.247z M1001.156,1260.183v-90.87
				c0-10.646-5.323-15.969-15.968-15.969h-9.883c-10.646,0-15.969,5.323-15.969,15.969v90.87H1001.156z"/>
			<path style="fill:#003942;" d="M1081.374,1120.271h71.477c27.88,0,41.82,15.587,41.82,46.762v67.298
				c0,23.824-7.222,38.908-21.665,45.237l25.471,113.679h-34.599l-23.953-110.255h-22.054v110.255h-36.497V1120.271z
				 M1117.871,1251.818h23.953c10.898,0,16.35-6.589,16.35-19.774v-58.926c0-13.178-5.452-19.774-16.35-19.774h-23.953V1251.818z"/>
			<path style="fill:#003942;" d="M1236.492,1393.247v-272.976h90.482v33.073h-53.984v82.885h47.906v33.074h-47.906v90.87h53.984
				v33.073H1236.492z"/>
		</g>
		<g>
			<path style="fill:#003942;" d="M837.248,783.909l-0.166-30.383l-14.738,24.737h-7.207l-14.66-23.917v29.564h-14.983v-57.322
				h13.344l20.147,33.082l19.659-33.082h13.343l0.165,57.322H837.248z"/>
			<path style="fill:#003942;" d="M934.211,771.378v12.53h-46.022v-57.322h44.957v12.531h-28.909v9.66h25.471v12.12h-25.471v10.481
				H934.211z"/>
			<path style="fill:#003942;" d="M967.788,726.587h27.104c6.279,0,11.847,1.173,16.709,3.518c4.855,2.352,8.624,5.683,11.3,9.991
				c2.676,4.316,4.014,9.365,4.014,15.149c0,5.79-1.338,10.839-4.014,15.156c-2.676,4.308-6.445,7.639-11.3,9.991
				c-4.862,2.345-10.43,3.518-16.709,3.518h-27.104V726.587z M994.237,770.968c4.913,0,8.854-1.388,11.832-4.172
				c2.978-2.784,4.467-6.632,4.467-11.552c0-4.913-1.489-8.761-4.467-11.545c-2.978-2.784-6.919-4.172-11.832-4.172h-10.236v31.44
				H994.237z"/>
			<path style="fill:#003942;" d="M1059.996,726.587h16.213v57.322h-16.213V726.587z"/>
			<path style="fill:#003942;" d="M1124.734,781.247c-4.777-2.539-8.531-6.071-11.257-10.602c-2.733-4.531-4.1-9.667-4.1-15.4
				c0-5.726,1.367-10.861,4.1-15.393c2.726-4.531,6.48-8.063,11.257-10.602c4.776-2.54,10.171-3.813,16.177-3.813
				c5.236,0,9.962,0.928,14.163,2.784c4.208,1.863,7.696,4.539,10.481,8.028l-10.315,9.336c-3.712-4.474-8.214-6.718-13.516-6.718
				c-3.108,0-5.884,0.684-8.308,2.051c-2.431,1.366-4.316,3.286-5.654,5.775c-1.338,2.481-2.006,5.337-2.006,8.553
				c0,3.222,0.669,6.078,2.006,8.56c1.338,2.489,3.223,4.409,5.654,5.776c2.424,1.366,5.2,2.043,8.308,2.043
				c5.302,0,9.805-2.237,13.516-6.711l10.315,9.336c-2.784,3.497-6.273,6.172-10.481,8.028c-4.201,1.849-8.927,2.784-14.163,2.784
				C1134.904,785.059,1129.51,783.787,1124.734,781.247z"/>
			<path style="fill:#003942;" d="M1234.759,772.773h-24.24l-4.503,11.135h-16.544l25.306-57.322h15.969l25.384,57.322h-16.868
				L1234.759,772.773z M1230.004,760.819l-7.366-18.349l-7.373,18.349H1230.004z"/>
			<path style="fill:#003942;" d="M1285.283,726.587h16.213v44.468h27.355v12.855h-43.568V726.587z"/>
		</g>
	</g>
	<g style="opacity:0.4;">
		<g>
			<path style="fill:#FFFFFF;" d="M1064.488,1963.963c-53.627-35.615-94.727-80.033-122.758-132.847
				c-8.599-16.115-15.98-32.975-22.141-50.58c-3.792-11.037-7.177-22.344-10.089-33.923c-8.057-32.433-11.037-62.09-11.714-85.585
				c5.755,0.407,11.849,0.609,18.417,0.609c13.069,0,27.22-0.948,41.981-2.844c48.548-6.229,83.419-20.922,106.305-34.058
				c22.818,13.136,57.689,27.761,106.305,34.058c14.76,1.896,28.844,2.844,41.98,2.844c6.5,0,12.662-0.203,18.417-0.609
				c-0.745,23.495-3.656,53.22-11.714,85.585c-2.911,11.579-6.297,22.886-10.089,33.923c-6.161,17.605-13.542,34.465-22.141,50.58
				C1159.146,1883.93,1118.114,1928.348,1064.488,1963.963z M1064.488,389.302c-401.046,0-726.121,325.075-726.121,726.12
				c0,338.888,232.245,623.608,546.283,703.573c29.183,69.809,82.877,143.545,179.838,199.744
				c96.961-56.267,150.586-129.935,179.837-199.744c313.971-79.966,546.216-364.685,546.216-703.573
				C1790.541,714.377,1465.466,389.302,1064.488,389.302z M1262.269,1766.724c25.052-92.017,12.526-166.228,12.526-166.228
				s-15.235,14.625-62.022,14.625c-10.428,0-22.344-0.677-36.022-2.437c-78.679-10.156-112.263-45.027-112.263-45.027
				s-33.585,34.871-112.264,45.027c-13.677,1.76-25.662,2.437-36.022,2.437c-46.787,0-62.022-14.625-62.022-14.625
				s-12.526,74.21,12.526,166.228c-279.235-84.84-482.906-344.711-482.906-651.301c0-375.384,305.304-680.688,680.688-680.688
				c375.315,0,680.688,305.304,680.688,680.688C1745.176,1421.945,1541.436,1681.884,1262.269,1766.724z"/>
			<polygon style="fill:#FFFFFF;" points="1089.459,1688.751 1040.757,1688.751 1040.757,1766.765 962.743,1766.765 
				962.743,1815.467 1040.757,1815.467 1040.757,1893.481 1089.459,1893.481 1089.459,1815.467 1167.472,1815.467 
				1167.472,1766.765 1089.459,1766.765 			"/>
		</g>
		<g>
			<path style="fill:#F9FAFA;" d="M1064.48,1962.224c-53.627-35.615-94.726-80.033-122.758-132.847
				c-8.599-16.115-16.03-32.957-22.141-50.579c-3.823-11.026-7.177-22.344-10.089-33.923c-8.057-32.433-11.037-62.09-11.714-85.585
				c5.755,0.406,11.849,0.609,18.417,0.609c13.069,0,27.22-0.948,41.981-2.844c48.548-6.229,83.419-20.922,106.305-34.058
				c22.818,13.136,57.689,27.761,106.305,34.058c14.76,1.896,28.844,2.844,41.98,2.844c6.499,0,12.662-0.203,18.416-0.609
				c-0.745,23.495-3.656,53.22-11.714,85.585c-2.911,11.579-6.265,22.897-10.089,33.923c-6.111,17.622-13.542,34.465-22.141,50.579
				C1159.139,1882.191,1118.106,1926.609,1064.48,1962.224z M1064.48,387.563c-401.046,0-726.121,325.075-726.121,726.121
				c0,338.888,232.245,623.608,546.283,703.573c29.183,69.809,82.877,143.545,179.838,199.744
				c96.961-56.267,150.587-129.935,179.837-199.744c313.971-79.966,546.216-364.685,546.216-703.573
				C1790.533,712.638,1465.459,387.563,1064.48,387.563z M1262.261,1764.985c25.052-92.017,12.526-166.227,12.526-166.227
				s-15.235,14.625-62.022,14.625c-10.428,0-22.345-0.677-36.022-2.437c-78.679-10.157-112.263-45.027-112.263-45.027
				s-33.585,34.871-112.263,45.027c-13.677,1.76-25.662,2.437-36.022,2.437c-46.787,0-62.022-14.625-62.022-14.625
				s-12.526,74.21,12.526,166.227c-279.235-84.84-482.906-344.711-482.906-651.301c0-375.384,305.304-680.688,680.688-680.688
				c375.315,0,680.688,305.304,680.688,680.688C1745.168,1420.206,1541.428,1680.145,1262.261,1764.985z"/>
			<polygon style="fill:#F9FAFA;" points="1089.452,1687.012 1040.749,1687.012 1040.749,1765.026 962.735,1765.026 
				962.735,1813.728 1040.749,1813.728 1040.749,1891.742 1089.452,1891.742 1089.452,1813.728 1167.465,1813.728 
				1167.465,1765.026 1089.452,1765.026 			"/>
		</g>
		<g>
			<path style="fill:#F3F5F6;" d="M1064.473,1960.485c-53.627-35.615-94.727-80.033-122.758-132.847
				c-8.599-16.115-16.03-32.957-22.141-50.579c-3.823-11.026-7.177-22.344-10.089-33.923c-8.057-32.433-11.037-62.09-11.714-85.585
				c5.755,0.407,11.849,0.609,18.417,0.609c13.069,0,27.22-0.948,41.981-2.844c48.548-6.229,83.419-20.922,106.305-34.058
				c22.818,13.136,57.689,27.761,106.305,34.058c14.76,1.896,28.844,2.844,41.98,2.844c6.5,0,12.662-0.202,18.417-0.609
				c-0.745,23.495-3.656,53.22-11.714,85.585c-2.911,11.579-6.265,22.897-10.089,33.923c-6.111,17.622-13.542,34.465-22.141,50.579
				C1159.131,1880.452,1118.099,1924.87,1064.473,1960.485z M1064.473,385.824c-401.046,0-726.121,325.075-726.121,726.121
				c0,338.888,232.245,623.608,546.283,703.573c29.183,69.809,82.877,143.545,179.838,199.745
				c96.961-56.267,150.587-129.935,179.837-199.745c313.971-79.966,546.216-364.685,546.216-703.573
				C1790.526,710.899,1465.451,385.824,1064.473,385.824z M1262.254,1763.246c25.052-92.017,12.526-166.228,12.526-166.228
				s-15.235,14.625-62.022,14.625c-10.428,0-22.344-0.677-36.022-2.437c-78.679-10.157-112.263-45.027-112.263-45.027
				s-33.585,34.871-112.264,45.027c-13.677,1.76-25.662,2.437-36.022,2.437c-46.787,0-62.022-14.625-62.022-14.625
				s-12.526,74.21,12.526,166.228c-279.235-84.84-482.906-344.711-482.906-651.301c0-375.384,305.304-680.688,680.688-680.688
				c375.315,0,680.688,305.304,680.688,680.688C1745.16,1418.467,1541.421,1678.406,1262.254,1763.246z"/>
			<polygon style="fill:#F3F5F6;" points="1089.444,1685.273 1040.741,1685.273 1040.741,1763.287 962.728,1763.287 
				962.728,1811.989 1040.741,1811.989 1040.741,1890.003 1089.444,1890.003 1089.444,1811.989 1167.457,1811.989 
				1167.457,1763.287 1089.444,1763.287 			"/>
		</g>
		<g>
			<path style="fill:#ECF1F1;" d="M1064.465,1958.746c-53.627-35.615-94.727-80.034-122.758-132.847
				c-8.599-16.115-16.03-32.957-22.141-50.579c-3.823-11.026-7.177-22.344-10.089-33.923c-8.057-32.433-11.037-62.09-11.714-85.585
				c5.755,0.406,11.849,0.609,18.417,0.609c13.069,0,27.22-0.948,41.981-2.844c48.548-6.229,83.419-20.922,106.305-34.058
				c22.818,13.136,57.689,27.761,106.305,34.058c14.76,1.896,28.844,2.844,41.98,2.844c6.5,0,12.662-0.203,18.417-0.609
				c-0.745,23.495-3.656,53.22-11.714,85.585c-2.911,11.579-6.265,22.897-10.089,33.923c-6.111,17.622-13.542,34.465-22.141,50.579
				C1159.123,1878.713,1118.091,1923.131,1064.465,1958.746z M1064.465,384.085c-401.046,0-726.121,325.075-726.121,726.121
				c0,338.888,232.245,623.608,546.283,703.574c29.183,69.809,82.877,143.545,179.838,199.744
				c96.961-56.267,150.586-129.935,179.837-199.744c313.971-79.966,546.216-364.685,546.216-703.574
				C1790.518,709.16,1465.443,384.085,1064.465,384.085z M1262.246,1761.507c25.052-92.017,12.526-166.228,12.526-166.228
				s-15.235,14.625-62.022,14.625c-10.428,0-22.344-0.677-36.022-2.437c-78.679-10.156-112.263-45.027-112.263-45.027
				s-33.585,34.871-112.264,45.027c-13.677,1.76-25.662,2.437-36.022,2.437c-46.787,0-62.022-14.625-62.022-14.625
				s-12.526,74.21,12.526,166.228c-279.235-84.84-482.906-344.711-482.906-651.301c0-375.384,305.304-680.687,680.688-680.687
				c375.315,0,680.688,305.304,680.688,680.687C1745.153,1416.728,1541.413,1676.667,1262.246,1761.507z"/>
			<polygon style="fill:#ECF1F1;" points="1089.437,1683.534 1040.734,1683.534 1040.734,1761.548 962.72,1761.548 962.72,1810.25 
				1040.734,1810.25 1040.734,1888.264 1089.437,1888.264 1089.437,1810.25 1167.449,1810.25 1167.449,1761.548 1089.437,1761.548 
							"/>
		</g>
		<g>
			<path style="fill:#E6ECED;" d="M1064.458,1957.007c-53.627-35.615-94.726-80.033-122.758-132.847
				c-8.599-16.115-16.03-32.957-22.141-50.579c-3.823-11.026-7.177-22.344-10.089-33.923c-8.057-32.432-11.037-62.09-11.714-85.585
				c5.755,0.406,11.849,0.609,18.417,0.609c13.069,0,27.22-0.948,41.981-2.844c48.548-6.229,83.419-20.922,106.305-34.058
				c22.818,13.136,57.689,27.761,106.305,34.058c14.76,1.896,28.844,2.844,41.98,2.844c6.5,0,12.662-0.203,18.417-0.609
				c-0.745,23.495-3.656,53.22-11.714,85.585c-2.911,11.579-6.265,22.897-10.089,33.923c-6.111,17.622-13.542,34.465-22.141,50.579
				C1159.116,1876.974,1118.084,1921.392,1064.458,1957.007z M1064.458,382.346c-401.046,0-726.121,325.075-726.121,726.121
				c0,338.888,232.245,623.608,546.283,703.573c29.183,69.809,82.877,143.545,179.838,199.744
				c96.961-56.267,150.587-129.935,179.837-199.744c313.971-79.966,546.216-364.685,546.216-703.573
				C1790.511,707.421,1465.436,382.346,1064.458,382.346z M1262.238,1759.768c25.052-92.017,12.526-166.228,12.526-166.228
				s-15.235,14.625-62.022,14.625c-10.428,0-22.344-0.677-36.022-2.437c-78.679-10.157-112.263-45.027-112.263-45.027
				s-33.585,34.871-112.263,45.027c-13.677,1.76-25.662,2.437-36.022,2.437c-46.787,0-62.022-14.625-62.022-14.625
				s-12.526,74.21,12.526,166.228c-279.235-84.84-482.906-344.711-482.906-651.301c0-375.384,305.304-680.688,680.687-680.688
				c375.315,0,680.688,305.304,680.688,680.688C1745.145,1414.989,1541.406,1674.927,1262.238,1759.768z"/>
			<polygon style="fill:#E6ECED;" points="1089.429,1681.795 1040.726,1681.795 1040.726,1759.809 962.712,1759.809 
				962.712,1808.511 1040.726,1808.511 1040.726,1886.525 1089.429,1886.525 1089.429,1808.511 1167.442,1808.511 
				1167.442,1759.809 1089.429,1759.809 			"/>
		</g>
		<g>
			<path style="fill:#E0E7E8;" d="M1064.45,1955.268c-53.627-35.615-94.726-80.033-122.758-132.847
				c-8.599-16.115-16.03-32.957-22.141-50.58c-3.823-11.026-7.177-22.344-10.089-33.923c-8.057-32.433-11.037-62.09-11.714-85.585
				c5.755,0.406,11.849,0.609,18.417,0.609c13.069,0,27.22-0.948,41.981-2.844c48.548-6.229,83.419-20.922,106.305-34.058
				c22.818,13.136,57.689,27.761,106.305,34.058c14.76,1.896,28.844,2.844,41.98,2.844c6.5,0,12.662-0.203,18.417-0.609
				c-0.745,23.495-3.656,53.22-11.714,85.585c-2.911,11.579-6.265,22.897-10.089,33.923c-6.111,17.622-13.542,34.465-22.141,50.58
				C1159.108,1875.235,1118.076,1919.653,1064.45,1955.268z M1064.45,380.607c-401.046,0-726.121,325.075-726.121,726.121
				c0,338.888,232.245,623.608,546.283,703.573c29.183,69.809,82.877,143.545,179.838,199.744
				c96.961-56.267,150.587-129.935,179.837-199.744c313.971-79.966,546.216-364.685,546.216-703.573
				C1790.503,705.682,1465.428,380.607,1064.45,380.607z M1262.231,1758.029c25.052-92.017,12.526-166.228,12.526-166.228
				s-15.235,14.625-62.022,14.625c-10.427,0-22.344-0.677-36.022-2.437c-78.679-10.156-112.263-45.027-112.263-45.027
				s-33.584,34.871-112.263,45.027c-13.677,1.76-25.662,2.437-36.022,2.437c-46.787,0-62.022-14.625-62.022-14.625
				s-12.526,74.21,12.526,166.228c-279.235-84.84-482.906-344.711-482.906-651.301c0-375.384,305.304-680.688,680.688-680.688
				c375.316,0,680.688,305.304,680.688,680.688C1745.138,1413.25,1541.398,1673.188,1262.231,1758.029z"/>
			<polygon style="fill:#E0E7E8;" points="1089.421,1680.056 1040.719,1680.056 1040.719,1758.07 962.705,1758.07 962.705,1806.772 
				1040.719,1806.772 1040.719,1884.786 1089.421,1884.786 1089.421,1806.772 1167.434,1806.772 1167.434,1758.07 1089.421,1758.07 
							"/>
		</g>
		<g>
			<path style="fill:#DAE2E3;" d="M1064.442,1953.529c-53.627-35.615-94.726-80.033-122.758-132.847
				c-8.599-16.115-16.03-32.957-22.141-50.579c-3.824-11.026-7.177-22.344-10.089-33.923c-8.057-32.433-11.037-62.09-11.714-85.585
				c5.755,0.406,11.849,0.609,18.417,0.609c13.069,0,27.22-0.948,41.981-2.844c48.548-6.229,83.419-20.922,106.305-34.058
				c22.818,13.136,57.689,27.761,106.305,34.058c14.76,1.896,28.844,2.844,41.98,2.844c6.5,0,12.662-0.203,18.417-0.609
				c-0.745,23.495-3.656,53.22-11.714,85.585c-2.911,11.579-6.265,22.897-10.089,33.923c-6.111,17.622-13.542,34.465-22.141,50.579
				C1159.101,1873.496,1118.068,1917.914,1064.442,1953.529z M1064.442,378.868c-401.046,0-726.121,325.075-726.121,726.121
				c0,338.888,232.245,623.608,546.283,703.573c29.183,69.809,82.877,143.545,179.838,199.744
				c96.961-56.267,150.587-129.935,179.837-199.744c313.971-79.966,546.216-364.685,546.216-703.573
				C1790.495,703.943,1465.421,378.868,1064.442,378.868z M1262.223,1756.29c25.052-92.017,12.526-166.227,12.526-166.227
				s-15.235,14.625-62.022,14.625c-10.428,0-22.344-0.677-36.022-2.437c-78.679-10.157-112.263-45.027-112.263-45.027
				s-33.584,34.871-112.263,45.027c-13.677,1.76-25.662,2.437-36.022,2.437c-46.787,0-62.022-14.625-62.022-14.625
				s-12.526,74.21,12.526,166.227c-279.235-84.84-482.906-344.711-482.906-651.301c0-375.384,305.304-680.688,680.688-680.688
				c375.316,0,680.688,305.304,680.688,680.688C1745.13,1411.511,1541.391,1671.449,1262.223,1756.29z"/>
			<polygon style="fill:#DAE2E3;" points="1089.414,1678.317 1040.711,1678.317 1040.711,1756.331 962.697,1756.331 
				962.697,1805.033 1040.711,1805.033 1040.711,1883.047 1089.414,1883.047 1089.414,1805.033 1167.427,1805.033 
				1167.427,1756.331 1089.414,1756.331 			"/>
		</g>
		<g>
			<path style="fill:#D3DDDF;" d="M1064.435,1951.79c-53.627-35.615-94.726-80.033-122.758-132.847
				c-8.599-16.115-16.03-32.957-22.141-50.579c-3.824-11.026-7.177-22.344-10.089-33.923c-8.057-32.433-11.037-62.09-11.714-85.585
				c5.755,0.406,11.849,0.609,18.417,0.609c13.069,0,27.22-0.948,41.981-2.844c48.548-6.229,83.419-20.922,106.305-34.058
				c22.818,13.136,57.689,27.761,106.305,34.058c14.76,1.896,28.844,2.844,41.98,2.844c6.5,0,12.662-0.203,18.417-0.609
				c-0.745,23.495-3.656,53.22-11.714,85.585c-2.911,11.579-6.265,22.897-10.089,33.923c-6.111,17.622-13.542,34.465-22.141,50.579
				C1159.093,1871.757,1118.061,1916.175,1064.435,1951.79z M1064.435,377.129c-401.046,0-726.121,325.075-726.121,726.121
				c0,338.888,232.245,623.608,546.284,703.573c29.183,69.809,82.876,143.545,179.838,199.745
				c96.961-56.267,150.587-129.935,179.837-199.745c313.971-79.966,546.216-364.685,546.216-703.573
				C1790.488,702.203,1465.413,377.129,1064.435,377.129z M1262.215,1754.551c25.052-92.017,12.526-166.228,12.526-166.228
				s-15.235,14.625-62.022,14.625c-10.428,0-22.344-0.677-36.022-2.437c-78.679-10.157-112.263-45.027-112.263-45.027
				s-33.584,34.871-112.263,45.027c-13.677,1.76-25.662,2.437-36.022,2.437c-46.787,0-62.022-14.625-62.022-14.625
				s-12.526,74.21,12.526,166.228c-279.235-84.84-482.906-344.711-482.906-651.301c0-375.384,305.304-680.688,680.688-680.688
				c375.315,0,680.688,305.304,680.688,680.688C1745.122,1409.772,1541.383,1669.71,1262.215,1754.551z"/>
			<polygon style="fill:#D3DDDF;" points="1089.406,1676.578 1040.703,1676.578 1040.703,1754.592 962.69,1754.592 962.69,1803.294 
				1040.703,1803.294 1040.703,1881.308 1089.406,1881.308 1089.406,1803.294 1167.419,1803.294 1167.419,1754.592 
				1089.406,1754.592 			"/>
		</g>
		<g>
			<path style="fill:#CDD8DA;" d="M1064.427,1950.051c-53.627-35.615-94.726-80.034-122.758-132.847
				c-8.599-16.115-16.03-32.957-22.141-50.579c-3.823-11.026-7.177-22.344-10.089-33.923c-8.057-32.433-11.037-62.09-11.714-85.585
				c5.755,0.406,11.849,0.609,18.417,0.609c13.069,0,27.22-0.948,41.981-2.844c48.548-6.229,83.419-20.922,106.305-34.058
				c22.818,13.136,57.689,27.761,106.305,34.058c14.76,1.896,28.844,2.844,41.98,2.844c6.5,0,12.662-0.203,18.417-0.609
				c-0.745,23.495-3.656,53.22-11.714,85.585c-2.911,11.579-6.265,22.897-10.089,33.923c-6.111,17.622-13.542,34.465-22.141,50.579
				C1159.085,1870.017,1118.053,1914.436,1064.427,1950.051z M1064.427,375.39c-401.046,0-726.121,325.075-726.121,726.121
				c0,338.888,232.245,623.608,546.283,703.574c29.183,69.809,82.877,143.545,179.838,199.744
				c96.961-56.267,150.587-129.935,179.837-199.744c313.971-79.966,546.216-364.685,546.216-703.574
				C1790.48,700.464,1465.406,375.39,1064.427,375.39z M1262.208,1752.812c25.052-92.017,12.526-166.228,12.526-166.228
				s-15.235,14.625-62.022,14.625c-10.428,0-22.344-0.677-36.022-2.437c-78.679-10.156-112.263-45.027-112.263-45.027
				s-33.585,34.871-112.263,45.027c-13.677,1.76-25.662,2.437-36.022,2.437c-46.787,0-62.022-14.625-62.022-14.625
				s-12.526,74.21,12.526,166.228c-279.235-84.84-482.906-344.711-482.906-651.301c0-375.384,305.304-680.688,680.688-680.688
				c375.315,0,680.688,305.304,680.688,680.688C1745.115,1408.033,1541.375,1667.971,1262.208,1752.812z"/>
			<polygon style="fill:#CDD8DA;" points="1089.399,1674.839 1040.696,1674.839 1040.696,1752.853 962.682,1752.853 
				962.682,1801.555 1040.696,1801.555 1040.696,1879.569 1089.399,1879.569 1089.399,1801.555 1167.411,1801.555 
				1167.411,1752.853 1089.399,1752.853 			"/>
		</g>
		<g>
			<path style="fill:#C7D4D6;" d="M1064.42,1948.312c-53.627-35.615-94.726-80.033-122.758-132.847
				c-8.599-16.115-16.03-32.957-22.141-50.579c-3.823-11.026-7.177-22.344-10.089-33.923c-8.057-32.433-11.037-62.09-11.714-85.585
				c5.755,0.406,11.849,0.609,18.417,0.609c13.069,0,27.22-0.948,41.981-2.844c48.548-6.229,83.419-20.922,106.305-34.058
				c22.818,13.136,57.689,27.761,106.305,34.058c14.76,1.896,28.844,2.844,41.98,2.844c6.5,0,12.662-0.203,18.417-0.609
				c-0.745,23.495-3.656,53.22-11.714,85.585c-2.911,11.579-6.265,22.897-10.089,33.923c-6.111,17.622-13.542,34.465-22.141,50.579
				C1159.078,1868.279,1118.046,1912.697,1064.42,1948.312z M1064.42,373.651c-401.046,0-726.121,325.075-726.121,726.121
				c0,338.888,232.245,623.608,546.283,703.573c29.183,69.809,82.877,143.545,179.838,199.744
				c96.961-56.267,150.587-129.935,179.837-199.744c313.971-79.966,546.216-364.685,546.216-703.573
				C1790.473,698.725,1465.398,373.651,1064.42,373.651z M1262.2,1751.073c25.052-92.017,12.526-166.228,12.526-166.228
				s-15.235,14.625-62.022,14.625c-10.427,0-22.344-0.677-36.022-2.437c-78.679-10.157-112.263-45.027-112.263-45.027
				s-33.584,34.871-112.263,45.027c-13.677,1.76-25.662,2.437-36.022,2.437c-46.787,0-62.022-14.625-62.022-14.625
				s-12.526,74.21,12.526,166.228c-279.235-84.84-482.906-344.711-482.906-651.301c0-375.384,305.304-680.688,680.688-680.688
				c375.316,0,680.688,305.304,680.688,680.688C1745.107,1406.294,1541.368,1666.232,1262.2,1751.073z"/>
			<polygon style="fill:#C7D4D6;" points="1089.391,1673.1 1040.688,1673.1 1040.688,1751.114 962.674,1751.114 962.674,1799.816 
				1040.688,1799.816 1040.688,1877.83 1089.391,1877.83 1089.391,1799.816 1167.404,1799.816 1167.404,1751.114 1089.391,1751.114 
							"/>
		</g>
		<g>
			<path style="fill:#C1CFD1;" d="M1064.412,1946.573c-53.627-35.615-94.726-80.033-122.758-132.847
				c-8.599-16.115-16.03-32.957-22.141-50.579c-3.823-11.026-7.177-22.344-10.089-33.923c-8.057-32.433-11.037-62.09-11.714-85.585
				c5.755,0.406,11.849,0.609,18.416,0.609c13.069,0,27.22-0.948,41.981-2.844c48.548-6.229,83.419-20.922,106.305-34.058
				c22.818,13.136,57.689,27.761,106.305,34.058c14.76,1.896,28.844,2.844,41.98,2.844c6.5,0,12.662-0.203,18.417-0.609
				c-0.745,23.495-3.656,53.22-11.714,85.585c-2.911,11.579-6.265,22.897-10.089,33.923c-6.111,17.622-13.542,34.465-22.141,50.579
				C1159.07,1866.54,1118.038,1910.958,1064.412,1946.573z M1064.412,371.911c-401.046,0-726.121,325.075-726.121,726.121
				c0,338.888,232.245,623.608,546.283,703.573c29.183,69.809,82.877,143.545,179.838,199.744
				c96.961-56.267,150.587-129.935,179.837-199.744c313.971-79.966,546.216-364.685,546.216-703.573
				C1790.465,696.986,1465.39,371.911,1064.412,371.911z M1262.193,1749.334c25.052-92.017,12.526-166.228,12.526-166.228
				s-15.235,14.625-62.022,14.625c-10.428,0-22.344-0.677-36.022-2.437c-78.679-10.156-112.263-45.027-112.263-45.027
				s-33.584,34.871-112.263,45.027c-13.677,1.76-25.662,2.437-36.022,2.437c-46.787,0-62.022-14.625-62.022-14.625
				s-12.526,74.21,12.526,166.228c-279.235-84.84-482.906-344.711-482.906-651.301c0-375.384,305.304-680.688,680.688-680.688
				c375.316,0,680.688,305.304,680.688,680.688C1745.1,1404.555,1541.36,1664.493,1262.193,1749.334z"/>
			<polygon style="fill:#C1CFD1;" points="1089.383,1671.361 1040.681,1671.361 1040.681,1749.375 962.667,1749.375 
				962.667,1798.077 1040.681,1798.077 1040.681,1876.091 1089.383,1876.091 1089.383,1798.077 1167.396,1798.077 
				1167.396,1749.375 1089.383,1749.375 			"/>
		</g>
		<g>
			<path style="fill:#BBCACC;" d="M1064.404,1944.834c-53.627-35.615-94.726-80.033-122.758-132.847
				c-8.599-16.115-16.03-32.957-22.141-50.58c-3.823-11.026-7.177-22.344-10.089-33.923c-8.057-32.433-11.037-62.09-11.714-85.585
				c5.755,0.406,11.849,0.609,18.417,0.609c13.069,0,27.22-0.948,41.981-2.844c48.548-6.229,83.419-20.922,106.305-34.058
				c22.818,13.136,57.689,27.761,106.305,34.058c14.76,1.896,28.844,2.844,41.98,2.844c6.5,0,12.662-0.203,18.417-0.609
				c-0.745,23.495-3.656,53.22-11.714,85.585c-2.911,11.579-6.265,22.897-10.089,33.923c-6.111,17.622-13.542,34.465-22.141,50.58
				C1159.063,1864.8,1118.031,1909.219,1064.404,1944.834z M1064.404,370.172c-401.046,0-726.121,325.075-726.121,726.121
				c0,338.888,232.245,623.608,546.283,703.573c29.183,69.809,82.877,143.545,179.838,199.744
				c96.961-56.267,150.587-129.935,179.837-199.744c313.971-79.966,546.216-364.685,546.216-703.573
				C1790.457,695.247,1465.383,370.172,1064.404,370.172z M1262.185,1747.594c25.052-92.017,12.526-166.228,12.526-166.228
				s-15.235,14.625-62.022,14.625c-10.428,0-22.344-0.677-36.022-2.437c-78.679-10.157-112.263-45.027-112.263-45.027
				s-33.584,34.871-112.263,45.027c-13.677,1.76-25.662,2.437-36.022,2.437c-46.787,0-62.022-14.625-62.022-14.625
				s-12.526,74.21,12.526,166.228c-279.235-84.84-482.906-344.711-482.906-651.301c0-375.384,305.304-680.688,680.688-680.688
				c375.316,0,680.688,305.304,680.688,680.688C1745.092,1402.816,1541.353,1662.754,1262.185,1747.594z"/>
			<polygon style="fill:#BBCACC;" points="1089.376,1669.622 1040.673,1669.622 1040.673,1747.636 962.659,1747.636 
				962.659,1796.338 1040.673,1796.338 1040.673,1874.352 1089.376,1874.352 1089.376,1796.338 1167.389,1796.338 
				1167.389,1747.636 1089.376,1747.636 			"/>
		</g>
		<g>
			<path style="fill:#B4C5C8;" d="M1064.397,1943.095c-53.627-35.615-94.726-80.033-122.758-132.847
				c-8.599-16.115-16.03-32.957-22.141-50.579c-3.823-11.026-7.177-22.344-10.089-33.923c-8.057-32.433-11.037-62.09-11.714-85.585
				c5.755,0.406,11.849,0.609,18.416,0.609c13.069,0,27.22-0.948,41.981-2.844c48.548-6.229,83.419-20.922,106.305-34.058
				c22.818,13.136,57.689,27.761,106.305,34.058c14.76,1.896,28.844,2.844,41.98,2.844c6.5,0,12.662-0.203,18.417-0.609
				c-0.745,23.495-3.656,53.22-11.714,85.585c-2.911,11.579-6.265,22.897-10.089,33.923c-6.111,17.622-13.542,34.465-22.141,50.579
				C1159.055,1863.061,1118.023,1907.479,1064.397,1943.095z M1064.397,368.433c-401.046,0-726.121,325.075-726.121,726.121
				c0,338.888,232.245,623.608,546.283,703.573c29.183,69.809,82.877,143.545,179.838,199.744
				c96.961-56.267,150.587-129.935,179.837-199.744c313.971-79.966,546.216-364.685,546.216-703.573
				C1790.45,693.508,1465.375,368.433,1064.397,368.433z M1262.177,1745.855c25.052-92.017,12.526-166.228,12.526-166.228
				s-15.235,14.625-62.022,14.625c-10.428,0-22.344-0.677-36.022-2.437c-78.679-10.157-112.263-45.027-112.263-45.027
				s-33.584,34.871-112.263,45.027c-13.677,1.76-25.662,2.437-36.022,2.437c-46.787,0-62.022-14.625-62.022-14.625
				s-12.526,74.21,12.526,166.228c-279.235-84.84-482.906-344.711-482.906-651.301c0-375.384,305.304-680.688,680.688-680.688
				c375.316,0,680.688,305.304,680.688,680.688C1745.084,1401.077,1541.345,1661.015,1262.177,1745.855z"/>
			<polygon style="fill:#B4C5C8;" points="1089.368,1667.883 1040.665,1667.883 1040.665,1745.897 962.652,1745.897 
				962.652,1794.599 1040.665,1794.599 1040.665,1872.613 1089.368,1872.613 1089.368,1794.599 1167.381,1794.599 
				1167.381,1745.897 1089.368,1745.897 			"/>
		</g>
		<g>
			<path style="fill:#AEC0C3;" d="M1064.389,1941.356c-53.627-35.615-94.726-80.034-122.758-132.847
				c-8.599-16.115-16.03-32.957-22.141-50.579c-3.823-11.026-7.177-22.344-10.089-33.923c-8.058-32.433-11.037-62.09-11.714-85.585
				c5.755,0.406,11.849,0.609,18.417,0.609c13.069,0,27.22-0.948,41.98-2.844c48.548-6.229,83.419-20.922,106.305-34.058
				c22.818,13.136,57.689,27.761,106.305,34.058c14.76,1.896,28.844,2.844,41.98,2.844c6.5,0,12.662-0.203,18.417-0.609
				c-0.745,23.495-3.656,53.22-11.714,85.585c-2.911,11.579-6.265,22.897-10.089,33.923c-6.111,17.622-13.542,34.465-22.141,50.579
				C1159.047,1861.322,1118.015,1905.74,1064.389,1941.356z M1064.389,366.694c-401.046,0-726.121,325.075-726.121,726.121
				c0,338.888,232.245,623.608,546.283,703.573c29.183,69.809,82.877,143.545,179.838,199.745
				c96.961-56.267,150.587-129.935,179.837-199.745c313.971-79.966,546.216-364.685,546.216-703.573
				C1790.442,691.769,1465.368,366.694,1064.389,366.694z M1262.17,1744.116c25.052-92.017,12.526-166.228,12.526-166.228
				s-15.235,14.625-62.022,14.625c-10.427,0-22.344-0.677-36.022-2.437c-78.679-10.156-112.263-45.027-112.263-45.027
				s-33.584,34.871-112.263,45.027c-13.677,1.76-25.662,2.437-36.022,2.437c-46.787,0-62.022-14.625-62.022-14.625
				s-12.526,74.21,12.526,166.228c-279.235-84.84-482.906-344.711-482.906-651.301c0-375.384,305.304-680.688,680.688-680.688
				c375.316,0,680.688,305.304,680.688,680.688C1745.077,1399.338,1541.337,1659.276,1262.17,1744.116z"/>
			<polygon style="fill:#AEC0C3;" points="1089.36,1666.144 1040.658,1666.144 1040.658,1744.158 962.644,1744.158 962.644,1792.86 
				1040.658,1792.86 1040.658,1870.873 1089.36,1870.873 1089.36,1792.86 1167.374,1792.86 1167.374,1744.158 1089.36,1744.158 			
				"/>
		</g>
		<g>
			<path style="fill:#A8BBBE;" d="M1064.381,1939.617c-53.626-35.615-94.726-80.033-122.758-132.847
				c-8.599-16.115-16.03-32.957-22.141-50.579c-3.823-11.026-7.177-22.344-10.089-33.923c-8.058-32.433-11.037-62.09-11.714-85.585
				c5.755,0.406,11.849,0.609,18.417,0.609c13.069,0,27.22-0.948,41.981-2.844c48.548-6.229,83.419-20.922,106.305-34.058
				c22.818,13.136,57.689,27.761,106.305,34.058c14.76,1.896,28.844,2.844,41.98,2.844c6.5,0,12.662-0.203,18.417-0.609
				c-0.745,23.495-3.656,53.22-11.714,85.585c-2.911,11.579-6.265,22.897-10.089,33.923c-6.111,17.622-13.542,34.465-22.141,50.579
				C1159.04,1859.583,1118.008,1904.001,1064.381,1939.617z M1064.381,364.955c-401.046,0-726.121,325.075-726.121,726.121
				c0,338.888,232.245,623.608,546.283,703.573c29.183,69.809,82.877,143.545,179.838,199.744
				c96.961-56.267,150.587-129.935,179.837-199.744c313.971-79.966,546.216-364.685,546.216-703.573
				C1790.435,690.03,1465.36,364.955,1064.381,364.955z M1262.162,1742.377c25.052-92.017,12.526-166.228,12.526-166.228
				s-15.235,14.625-62.022,14.625c-10.428,0-22.344-0.677-36.022-2.437c-78.679-10.157-112.263-45.027-112.263-45.027
				s-33.584,34.871-112.263,45.027c-13.677,1.76-25.662,2.437-36.022,2.437c-46.787,0-62.022-14.625-62.022-14.625
				s-12.526,74.21,12.526,166.228c-279.235-84.84-482.906-344.711-482.906-651.301c0-375.384,305.304-680.688,680.688-680.688
				c375.316,0,680.688,305.304,680.688,680.688C1745.069,1397.599,1541.33,1657.537,1262.162,1742.377z"/>
			<polygon style="fill:#A8BBBE;" points="1089.353,1664.405 1040.65,1664.405 1040.65,1742.419 962.636,1742.419 962.636,1791.121 
				1040.65,1791.121 1040.65,1869.134 1089.353,1869.134 1089.353,1791.121 1167.366,1791.121 1167.366,1742.419 1089.353,1742.419 
							"/>
		</g>
		<g>
			<path style="fill:#A2B7BA;" d="M1064.374,1937.878c-53.626-35.615-94.726-80.033-122.758-132.847
				c-8.599-16.115-16.03-32.957-22.141-50.58c-3.823-11.026-7.177-22.344-10.089-33.923c-8.058-32.433-11.037-62.09-11.714-85.585
				c5.755,0.406,11.849,0.609,18.417,0.609c13.069,0,27.22-0.948,41.98-2.844c48.548-6.229,83.419-20.922,106.305-34.058
				c22.818,13.136,57.689,27.761,106.305,34.058c14.76,1.896,28.844,2.844,41.98,2.844c6.5,0,12.662-0.203,18.417-0.609
				c-0.745,23.495-3.656,53.22-11.714,85.585c-2.911,11.579-6.265,22.897-10.089,33.923c-6.111,17.622-13.542,34.465-22.141,50.58
				C1159.032,1857.844,1118,1902.262,1064.374,1937.878z M1064.374,363.216c-401.046,0-726.121,325.075-726.121,726.121
				c0,338.888,232.245,623.608,546.283,703.573c29.183,69.809,82.877,143.545,179.838,199.744
				c96.961-56.267,150.587-129.935,179.837-199.744c313.971-79.966,546.216-364.685,546.216-703.573
				C1790.427,688.291,1465.352,363.216,1064.374,363.216z M1262.155,1740.638c25.053-92.017,12.526-166.228,12.526-166.228
				s-15.235,14.625-62.022,14.625c-10.428,0-22.344-0.677-36.022-2.437c-78.679-10.156-112.263-45.027-112.263-45.027
				s-33.584,34.871-112.263,45.027c-13.677,1.76-25.662,2.437-36.022,2.437c-46.787,0-62.022-14.625-62.022-14.625
				s-12.526,74.21,12.526,166.228c-279.235-84.84-482.906-344.711-482.906-651.301c0-375.384,305.304-680.688,680.688-680.688
				c375.316,0,680.688,305.304,680.688,680.688C1745.062,1395.86,1541.322,1655.798,1262.155,1740.638z"/>
			<polygon style="fill:#A2B7BA;" points="1089.345,1662.666 1040.643,1662.666 1040.643,1740.68 962.629,1740.68 962.629,1789.382 
				1040.643,1789.382 1040.643,1867.395 1089.345,1867.395 1089.345,1789.382 1167.358,1789.382 1167.358,1740.68 1089.345,1740.68 
							"/>
		</g>
		<g>
			<path style="fill:#9BB2B5;" d="M1064.366,1936.139c-53.626-35.615-94.726-80.033-122.758-132.847
				c-8.599-16.115-16.03-32.957-22.141-50.58c-3.823-11.026-7.177-22.344-10.089-33.923c-8.058-32.433-11.037-62.09-11.714-85.585
				c5.755,0.406,11.849,0.609,18.417,0.609c13.069,0,27.22-0.948,41.981-2.844c48.548-6.229,83.419-20.922,106.305-34.058
				c22.818,13.136,57.689,27.761,106.305,34.058c14.76,1.896,28.844,2.844,41.98,2.844c6.5,0,12.662-0.203,18.417-0.609
				c-0.745,23.495-3.656,53.22-11.714,85.585c-2.911,11.579-6.265,22.897-10.089,33.923c-6.111,17.622-13.542,34.465-22.141,50.58
				C1159.025,1856.105,1117.993,1900.523,1064.366,1936.139z M1064.366,361.477c-401.046,0-726.121,325.075-726.121,726.121
				c0,338.888,232.245,623.608,546.284,703.573c29.183,69.809,82.877,143.545,179.838,199.744
				c96.961-56.267,150.587-129.935,179.838-199.744c313.971-79.966,546.216-364.685,546.216-703.573
				C1790.419,686.552,1465.345,361.477,1064.366,361.477z M1262.147,1738.899c25.052-92.017,12.526-166.228,12.526-166.228
				s-15.235,14.625-62.022,14.625c-10.428,0-22.345-0.677-36.022-2.437c-78.679-10.157-112.263-45.027-112.263-45.027
				s-33.584,34.871-112.263,45.027c-13.677,1.76-25.662,2.437-36.022,2.437c-46.787,0-62.022-14.625-62.022-14.625
				s-12.526,74.21,12.526,166.228c-279.235-84.84-482.906-344.711-482.906-651.301c0-375.384,305.304-680.688,680.688-680.688
				c375.316,0,680.688,305.304,680.688,680.688C1745.054,1394.121,1541.314,1654.059,1262.147,1738.899z"/>
			<polygon style="fill:#9BB2B5;" points="1089.338,1660.927 1040.635,1660.927 1040.635,1738.941 962.621,1738.941 
				962.621,1787.642 1040.635,1787.642 1040.635,1865.656 1089.338,1865.656 1089.338,1787.642 1167.351,1787.642 
				1167.351,1738.941 1089.338,1738.941 			"/>
		</g>
		<g>
			<path style="fill:#95ADB1;" d="M1064.359,1934.4c-53.626-35.615-94.726-80.033-122.758-132.847
				c-8.599-16.115-16.03-32.957-22.141-50.579c-3.823-11.026-7.177-22.344-10.089-33.923c-8.058-32.433-11.037-62.09-11.714-85.585
				c5.755,0.406,11.849,0.609,18.417,0.609c13.069,0,27.22-0.948,41.981-2.844c48.548-6.229,83.419-20.922,106.305-34.058
				c22.818,13.136,57.689,27.761,106.305,34.058c14.76,1.896,28.844,2.844,41.98,2.844c6.5,0,12.662-0.203,18.417-0.609
				c-0.745,23.495-3.656,53.22-11.714,85.585c-2.911,11.579-6.265,22.897-10.089,33.923c-6.111,17.622-13.542,34.465-22.141,50.579
				C1159.017,1854.366,1117.985,1898.784,1064.359,1934.4z M1064.359,359.738c-401.046,0-726.121,325.075-726.121,726.121
				c0,338.888,232.245,623.608,546.283,703.573c29.183,69.809,82.877,143.545,179.838,199.744
				c96.961-56.267,150.587-129.935,179.837-199.744c313.971-79.966,546.216-364.685,546.216-703.573
				C1790.412,684.813,1465.337,359.738,1064.359,359.738z M1262.139,1737.16c25.053-92.017,12.526-166.228,12.526-166.228
				s-15.235,14.625-62.022,14.625c-10.428,0-22.344-0.677-36.022-2.437c-78.679-10.156-112.263-45.027-112.263-45.027
				s-33.584,34.871-112.263,45.027c-13.677,1.76-25.662,2.437-36.022,2.437c-46.787,0-62.022-14.625-62.022-14.625
				s-12.526,74.21,12.526,166.228c-279.235-84.84-482.906-344.711-482.906-651.301c0-375.384,305.304-680.688,680.688-680.688
				c375.316,0,680.688,305.304,680.688,680.688C1745.046,1392.382,1541.307,1652.32,1262.139,1737.16z"/>
			<polygon style="fill:#95ADB1;" points="1089.33,1659.188 1040.627,1659.188 1040.627,1737.202 962.614,1737.202 
				962.614,1785.904 1040.627,1785.904 1040.627,1863.917 1089.33,1863.917 1089.33,1785.904 1167.343,1785.904 1167.343,1737.202 
				1089.33,1737.202 			"/>
		</g>
		<g>
			<path style="fill:#8FA8AC;" d="M1064.351,1932.661c-53.626-35.615-94.726-80.034-122.758-132.847
				c-8.599-16.115-16.03-32.957-22.141-50.579c-3.823-11.026-7.177-22.344-10.089-33.923c-8.058-32.433-11.037-62.09-11.714-85.585
				c5.755,0.406,11.849,0.609,18.417,0.609c13.069,0,27.22-0.948,41.98-2.844c48.548-6.229,83.419-20.922,106.305-34.058
				c22.818,13.136,57.689,27.761,106.305,34.058c14.76,1.896,28.844,2.844,41.98,2.844c6.5,0,12.662-0.203,18.417-0.609
				c-0.745,23.495-3.656,53.22-11.714,85.585c-2.911,11.579-6.265,22.897-10.089,33.923c-6.111,17.622-13.542,34.465-22.141,50.579
				C1159.009,1852.627,1117.977,1897.045,1064.351,1932.661z M1064.351,357.999c-401.046,0-726.121,325.075-726.121,726.121
				c0,338.888,232.245,623.608,546.283,703.573c29.183,69.809,82.877,143.545,179.837,199.744
				c96.961-56.267,150.587-129.935,179.838-199.744c313.971-79.966,546.216-364.685,546.216-703.573
				C1790.404,683.074,1465.329,357.999,1064.351,357.999z M1262.132,1735.421c25.053-92.017,12.526-166.228,12.526-166.228
				s-15.235,14.625-62.022,14.625c-10.428,0-22.344-0.677-36.022-2.437c-78.679-10.156-112.263-45.027-112.263-45.027
				s-33.584,34.871-112.263,45.027c-13.677,1.76-25.662,2.437-36.022,2.437c-46.787,0-62.022-14.625-62.022-14.625
				s-12.526,74.21,12.526,166.228c-279.235-84.84-482.906-344.711-482.906-651.301c0-375.384,305.304-680.688,680.688-680.688
				c375.316,0,680.688,305.304,680.688,680.688C1745.039,1390.643,1541.299,1650.581,1262.132,1735.421z"/>
			<polygon style="fill:#8FA8AC;" points="1089.323,1657.449 1040.62,1657.449 1040.62,1735.463 962.606,1735.463 962.606,1784.165 
				1040.62,1784.165 1040.62,1862.178 1089.323,1862.178 1089.323,1784.165 1167.335,1784.165 1167.335,1735.463 1089.323,1735.463 
							"/>
		</g>
		<g>
			<path style="fill:#89A3A7;" d="M1064.343,1930.922c-53.626-35.615-94.726-80.033-122.758-132.847
				c-8.599-16.115-16.03-32.957-22.141-50.579c-3.823-11.026-7.177-22.344-10.089-33.923c-8.058-32.433-11.037-62.09-11.714-85.585
				c5.755,0.406,11.849,0.609,18.417,0.609c13.069,0,27.22-0.948,41.98-2.844c48.548-6.229,83.419-20.922,106.305-34.058
				c22.818,13.136,57.689,27.761,106.305,34.058c14.76,1.896,28.844,2.844,41.98,2.844c6.5,0,12.662-0.203,18.417-0.609
				c-0.745,23.495-3.656,53.22-11.714,85.585c-2.911,11.579-6.265,22.897-10.089,33.923c-6.111,17.622-13.542,34.465-22.141,50.579
				C1159.002,1850.888,1117.97,1895.306,1064.343,1930.922z M1064.343,356.26c-401.046,0-726.121,325.075-726.121,726.121
				c0,338.888,232.245,623.608,546.283,703.573c29.183,69.809,82.877,143.545,179.838,199.744
				c96.961-56.267,150.587-129.935,179.838-199.744c313.971-79.966,546.216-364.685,546.216-703.573
				C1790.397,681.335,1465.322,356.26,1064.343,356.26z M1262.124,1733.682c25.053-92.017,12.526-166.228,12.526-166.228
				s-15.235,14.625-62.022,14.625c-10.428,0-22.344-0.677-36.022-2.437c-78.679-10.157-112.263-45.027-112.263-45.027
				s-33.584,34.871-112.263,45.027c-13.677,1.76-25.662,2.437-36.022,2.437c-46.787,0-62.022-14.625-62.022-14.625
				s-12.526,74.21,12.526,166.228c-279.235-84.84-482.906-344.711-482.906-651.301c0-375.384,305.304-680.688,680.688-680.688
				c375.316,0,680.688,305.304,680.688,680.688C1745.031,1388.904,1541.292,1648.842,1262.124,1733.682z"/>
			<polygon style="fill:#89A3A7;" points="1089.315,1655.71 1040.612,1655.71 1040.612,1733.723 962.598,1733.723 962.598,1782.425 
				1040.612,1782.425 1040.612,1860.439 1089.315,1860.439 1089.315,1782.425 1167.328,1782.425 1167.328,1733.723 
				1089.315,1733.723 			"/>
		</g>
		<g>
			<path style="fill:#839EA3;" d="M1064.336,1929.182c-53.626-35.615-94.726-80.033-122.758-132.847
				c-8.599-16.115-16.03-32.957-22.141-50.579c-3.823-11.026-7.177-22.344-10.088-33.923c-8.058-32.432-11.037-62.09-11.714-85.585
				c5.755,0.406,11.849,0.609,18.417,0.609c13.069,0,27.22-0.948,41.98-2.844c48.548-6.229,83.419-20.922,106.305-34.058
				c22.818,13.136,57.689,27.761,106.305,34.058c14.76,1.896,28.844,2.844,41.98,2.844c6.499,0,12.662-0.203,18.417-0.609
				c-0.745,23.495-3.656,53.22-11.714,85.585c-2.911,11.579-6.265,22.897-10.089,33.923c-6.111,17.622-13.542,34.465-22.141,50.579
				C1158.994,1849.149,1117.962,1893.567,1064.336,1929.182z M1064.336,354.521c-401.046,0-726.121,325.075-726.121,726.121
				c0,338.888,232.245,623.608,546.284,703.573c29.183,69.809,82.877,143.545,179.838,199.744
				c96.961-56.267,150.587-129.935,179.838-199.744c313.971-79.966,546.216-364.685,546.216-703.573
				C1790.389,679.596,1465.314,354.521,1064.336,354.521z M1262.116,1731.943c25.053-92.018,12.526-166.228,12.526-166.228
				s-15.235,14.625-62.022,14.625c-10.428,0-22.345-0.677-36.022-2.437c-78.679-10.156-112.263-45.027-112.263-45.027
				s-33.584,34.871-112.263,45.027c-13.677,1.76-25.662,2.437-36.022,2.437c-46.787,0-62.022-14.625-62.022-14.625
				s-12.526,74.21,12.526,166.228c-279.235-84.84-482.906-344.711-482.906-651.301c0-375.384,305.304-680.688,680.688-680.688
				c375.316,0,680.688,305.304,680.688,680.688C1745.024,1387.165,1541.284,1647.103,1262.116,1731.943z"/>
			<polygon style="fill:#839EA3;" points="1089.307,1653.971 1040.605,1653.971 1040.605,1731.984 962.591,1731.984 
				962.591,1780.686 1040.605,1780.686 1040.605,1858.7 1089.307,1858.7 1089.307,1780.686 1167.32,1780.686 1167.32,1731.984 
				1089.307,1731.984 			"/>
		</g>
		<g>
			<path style="fill:#7C9A9E;" d="M1064.328,1927.443c-53.626-35.615-94.726-80.033-122.758-132.847
				c-8.599-16.115-16.03-32.957-22.141-50.58c-3.823-11.026-7.177-22.344-10.088-33.923c-8.058-32.433-11.037-62.09-11.714-85.585
				c5.755,0.406,11.849,0.609,18.417,0.609c13.069,0,27.22-0.948,41.98-2.844c48.548-6.229,83.419-20.922,106.305-34.058
				c22.818,13.136,57.689,27.761,106.305,34.058c14.76,1.896,28.844,2.844,41.98,2.844c6.499,0,12.662-0.203,18.416-0.609
				c-0.745,23.495-3.656,53.22-11.714,85.585c-2.911,11.579-6.265,22.897-10.089,33.923c-6.111,17.622-13.542,34.465-22.141,50.58
				C1158.987,1847.41,1117.954,1891.828,1064.328,1927.443z M1064.328,352.782c-401.046,0-726.121,325.075-726.121,726.121
				c0,338.888,232.245,623.608,546.283,703.573c29.183,69.809,82.877,143.545,179.838,199.745
				c96.961-56.267,150.587-129.935,179.837-199.745c313.971-79.966,546.216-364.685,546.216-703.573
				C1790.381,677.857,1465.307,352.782,1064.328,352.782z M1262.109,1730.204c25.053-92.017,12.526-166.228,12.526-166.228
				s-15.235,14.625-62.022,14.625c-10.428,0-22.345-0.677-36.022-2.437c-78.679-10.157-112.263-45.027-112.263-45.027
				s-33.584,34.871-112.263,45.027c-13.677,1.76-25.662,2.437-36.022,2.437c-46.787,0-62.022-14.625-62.022-14.625
				s-12.526,74.21,12.526,166.228c-279.235-84.84-482.906-344.711-482.906-651.301c0-375.384,305.304-680.688,680.688-680.688
				c375.316,0,680.688,305.304,680.688,680.688C1745.016,1385.426,1541.276,1645.364,1262.109,1730.204z"/>
			<polygon style="fill:#7C9A9E;" points="1089.3,1652.232 1040.597,1652.232 1040.597,1730.245 962.583,1730.245 962.583,1778.947 
				1040.597,1778.947 1040.597,1856.961 1089.3,1856.961 1089.3,1778.947 1167.313,1778.947 1167.313,1730.245 1089.3,1730.245 			
				"/>
		</g>
		<g>
			<path style="fill:#76959A;" d="M1064.321,1925.704c-53.626-35.615-94.726-80.033-122.758-132.847
				c-8.599-16.115-16.03-32.957-22.141-50.58c-3.823-11.026-7.177-22.344-10.088-33.923c-8.058-32.433-11.037-62.09-11.714-85.585
				c5.755,0.406,11.849,0.609,18.416,0.609c13.069,0,27.22-0.948,41.98-2.844c48.548-6.229,83.419-20.922,106.305-34.058
				c22.818,13.136,57.689,27.761,106.305,34.058c14.76,1.896,28.844,2.844,41.98,2.844c6.499,0,12.662-0.203,18.416-0.609
				c-0.745,23.495-3.656,53.22-11.714,85.585c-2.911,11.579-6.265,22.897-10.089,33.923c-6.111,17.622-13.542,34.465-22.141,50.58
				C1158.979,1845.671,1117.947,1890.089,1064.321,1925.704z M1064.321,351.043c-401.046,0-726.121,325.075-726.121,726.121
				c0,338.888,232.245,623.608,546.284,703.573c29.183,69.809,82.877,143.545,179.837,199.744
				c96.961-56.267,150.587-129.935,179.838-199.744c313.971-79.966,546.216-364.685,546.216-703.573
				C1790.374,676.118,1465.299,351.043,1064.321,351.043z M1262.101,1728.465c25.053-92.017,12.526-166.228,12.526-166.228
				s-15.235,14.625-62.022,14.625c-10.428,0-22.345-0.677-36.022-2.437c-78.679-10.156-112.263-45.027-112.263-45.027
				s-33.584,34.871-112.263,45.027c-13.677,1.76-25.662,2.437-36.022,2.437c-46.787,0-62.022-14.625-62.022-14.625
				s-12.526,74.21,12.526,166.228c-279.235-84.84-482.906-344.711-482.906-651.301c0-375.384,305.304-680.688,680.688-680.688
				c375.316,0,680.688,305.304,680.688,680.688C1745.008,1383.686,1541.269,1643.625,1262.101,1728.465z"/>
			<polygon style="fill:#76959A;" points="1089.292,1650.493 1040.589,1650.493 1040.589,1728.506 962.576,1728.506 
				962.576,1777.208 1040.589,1777.208 1040.589,1855.222 1089.292,1855.222 1089.292,1777.208 1167.305,1777.208 
				1167.305,1728.506 1089.292,1728.506 			"/>
		</g>
		<g>
			<path style="fill:#709095;" d="M1064.313,1923.965c-53.626-35.615-94.726-80.034-122.758-132.847
				c-8.599-16.115-16.03-32.957-22.141-50.579c-3.823-11.026-7.177-22.344-10.088-33.923c-8.058-32.433-11.037-62.09-11.714-85.585
				c5.755,0.406,11.849,0.609,18.417,0.609c13.068,0,27.22-0.948,41.98-2.844c48.548-6.229,83.419-20.922,106.305-34.058
				c22.818,13.136,57.689,27.761,106.305,34.058c14.76,1.896,28.845,2.844,41.981,2.844c6.499,0,12.661-0.203,18.416-0.609
				c-0.745,23.495-3.656,53.22-11.714,85.585c-2.911,11.579-6.265,22.897-10.089,33.923c-6.111,17.622-13.542,34.465-22.141,50.579
				C1158.971,1843.932,1117.939,1888.35,1064.313,1923.965z M1064.313,349.304c-401.045,0-726.121,325.075-726.121,726.121
				c0,338.888,232.245,623.608,546.283,703.573c29.183,69.809,82.877,143.545,179.837,199.744
				c96.961-56.267,150.587-129.935,179.838-199.744c313.971-79.966,546.216-364.685,546.216-703.573
				C1790.366,674.379,1465.292,349.304,1064.313,349.304z M1262.094,1726.726c25.053-92.017,12.527-166.227,12.527-166.227
				s-15.235,14.625-62.022,14.625c-10.428,0-22.345-0.677-36.022-2.437c-78.679-10.157-112.263-45.027-112.263-45.027
				s-33.584,34.871-112.263,45.027c-13.677,1.76-25.662,2.437-36.022,2.437c-46.787,0-62.022-14.625-62.022-14.625
				s-12.526,74.21,12.526,166.227c-279.235-84.84-482.906-344.711-482.906-651.301c0-375.384,305.304-680.688,680.688-680.688
				c375.316,0,680.688,305.304,680.688,680.688C1745.001,1381.947,1541.261,1641.886,1262.094,1726.726z"/>
			<polygon style="fill:#709095;" points="1089.285,1648.754 1040.582,1648.754 1040.582,1726.767 962.568,1726.767 
				962.568,1775.469 1040.582,1775.469 1040.582,1853.483 1089.285,1853.483 1089.285,1775.469 1167.298,1775.469 
				1167.298,1726.767 1089.285,1726.767 			"/>
		</g>
		<g>
			<path style="fill:#6A8B90;" d="M1064.305,1922.226c-53.626-35.615-94.726-80.033-122.758-132.847
				c-8.599-16.115-16.031-32.957-22.141-50.579c-3.823-11.026-7.177-22.344-10.088-33.923c-8.058-32.433-11.037-62.09-11.714-85.585
				c5.755,0.406,11.849,0.609,18.417,0.609c13.069,0,27.22-0.948,41.98-2.844c48.549-6.229,83.419-20.922,106.305-34.058
				c22.818,13.136,57.689,27.761,106.305,34.058c14.76,1.896,28.844,2.844,41.98,2.844c6.499,0,12.662-0.203,18.417-0.609
				c-0.745,23.495-3.656,53.22-11.714,85.585c-2.911,11.579-6.265,22.897-10.089,33.923c-6.111,17.622-13.542,34.465-22.141,50.579
				C1158.964,1842.193,1117.932,1886.611,1064.305,1922.226z M1064.305,347.565c-401.046,0-726.121,325.075-726.121,726.121
				c0,338.888,232.245,623.608,546.284,703.573c29.183,69.809,82.877,143.545,179.837,199.744
				c96.961-56.267,150.587-129.935,179.838-199.744c313.971-79.966,546.216-364.685,546.216-703.573
				C1790.359,672.64,1465.284,347.565,1064.305,347.565z M1262.086,1724.987c25.053-92.017,12.526-166.228,12.526-166.228
				s-15.235,14.625-62.022,14.625c-10.428,0-22.345-0.677-36.022-2.437c-78.679-10.157-112.263-45.027-112.263-45.027
				s-33.584,34.871-112.263,45.027c-13.677,1.76-25.662,2.437-36.022,2.437c-46.787,0-62.022-14.625-62.022-14.625
				s-12.526,74.21,12.526,166.228c-279.235-84.84-482.906-344.711-482.906-651.301c0-375.384,305.304-680.688,680.688-680.688
				c375.316,0,680.688,305.304,680.688,680.688C1744.993,1380.208,1541.254,1640.147,1262.086,1724.987z"/>
			<polygon style="fill:#6A8B90;" points="1089.277,1647.015 1040.574,1647.015 1040.574,1725.028 962.56,1725.028 962.56,1773.73 
				1040.574,1773.73 1040.574,1851.744 1089.277,1851.744 1089.277,1773.73 1167.29,1773.73 1167.29,1725.028 1089.277,1725.028 			
				"/>
		</g>
		<g>
			<path style="fill:#64868C;" d="M1064.298,1920.487c-53.626-35.615-94.726-80.033-122.758-132.847
				c-8.599-16.115-16.03-32.957-22.141-50.579c-3.823-11.026-7.177-22.344-10.088-33.923c-8.058-32.432-11.037-62.09-11.714-85.585
				c5.755,0.406,11.849,0.609,18.417,0.609c13.068,0,27.22-0.948,41.98-2.844c48.549-6.229,83.419-20.922,106.305-34.058
				c22.818,13.136,57.689,27.761,106.305,34.058c14.76,1.896,28.844,2.844,41.98,2.844c6.499,0,12.662-0.203,18.416-0.609
				c-0.745,23.495-3.656,53.22-11.714,85.585c-2.911,11.579-6.265,22.897-10.089,33.923c-6.111,17.622-13.542,34.465-22.141,50.579
				C1158.956,1840.454,1117.924,1884.872,1064.298,1920.487z M1064.298,345.826c-401.046,0-726.121,325.075-726.121,726.121
				c0,338.888,232.245,623.608,546.283,703.573c29.183,69.809,82.877,143.545,179.837,199.744
				c96.961-56.267,150.587-129.935,179.838-199.744c313.971-79.966,546.216-364.685,546.216-703.573
				C1790.351,670.901,1465.276,345.826,1064.298,345.826z M1262.078,1723.248c25.053-92.018,12.527-166.228,12.527-166.228
				s-15.235,14.625-62.022,14.625c-10.428,0-22.345-0.677-36.022-2.437c-78.679-10.156-112.263-45.027-112.263-45.027
				s-33.584,34.871-112.263,45.027c-13.677,1.76-25.662,2.437-36.022,2.437c-46.787,0-62.022-14.625-62.022-14.625
				s-12.526,74.21,12.526,166.228c-279.235-84.84-482.906-344.711-482.906-651.301c0-375.384,305.304-680.688,680.688-680.688
				c375.316,0,680.688,305.304,680.688,680.688C1744.986,1378.469,1541.246,1638.408,1262.078,1723.248z"/>
			<polygon style="fill:#64868C;" points="1089.269,1645.275 1040.567,1645.275 1040.567,1723.289 962.553,1723.289 
				962.553,1771.991 1040.567,1771.991 1040.567,1850.005 1089.269,1850.005 1089.269,1771.991 1167.282,1771.991 
				1167.282,1723.289 1089.269,1723.289 			"/>
		</g>
		<g>
			<path style="fill:#5D8187;" d="M1064.29,1918.748c-53.626-35.615-94.726-80.033-122.758-132.847
				c-8.599-16.115-16.03-32.957-22.141-50.58c-3.823-11.026-7.177-22.344-10.088-33.923c-8.058-32.433-11.037-62.09-11.714-85.585
				c5.755,0.406,11.849,0.609,18.417,0.609c13.068,0,27.22-0.948,41.98-2.844c48.549-6.229,83.419-20.922,106.305-34.058
				c22.818,13.136,57.689,27.761,106.305,34.058c14.761,1.896,28.845,2.844,41.981,2.844c6.499,0,12.662-0.203,18.416-0.609
				c-0.745,23.495-3.656,53.22-11.714,85.585c-2.911,11.579-6.265,22.897-10.089,33.923c-6.111,17.622-13.542,34.465-22.141,50.58
				C1158.949,1838.715,1117.917,1883.133,1064.29,1918.748z M1064.29,344.086c-401.045,0-726.121,325.075-726.121,726.121
				c0,338.888,232.245,623.608,546.284,703.573c29.183,69.809,82.877,143.545,179.837,199.745
				c96.961-56.267,150.587-129.935,179.838-199.745c313.971-79.966,546.216-364.685,546.216-703.573
				C1790.343,669.162,1465.269,344.086,1064.29,344.086z M1262.071,1721.509c25.053-92.017,12.527-166.228,12.527-166.228
				s-15.235,14.625-62.022,14.625c-10.428,0-22.345-0.677-36.022-2.437c-78.679-10.156-112.263-45.027-112.263-45.027
				s-33.584,34.871-112.263,45.027c-13.677,1.76-25.662,2.437-36.022,2.437c-46.787,0-62.022-14.625-62.022-14.625
				s-12.526,74.21,12.526,166.228c-279.236-84.84-482.906-344.711-482.906-651.301c0-375.384,305.304-680.688,680.687-680.688
				c375.316,0,680.688,305.304,680.688,680.688C1744.978,1376.73,1541.239,1636.669,1262.071,1721.509z"/>
			<polygon style="fill:#5D8187;" points="1089.262,1643.536 1040.559,1643.536 1040.559,1721.55 962.545,1721.55 962.545,1770.252 
				1040.559,1770.252 1040.559,1848.266 1089.262,1848.266 1089.262,1770.252 1167.275,1770.252 1167.275,1721.55 1089.262,1721.55 
							"/>
		</g>
		<g>
			<path style="fill:#577D83;" d="M1064.282,1917.009c-53.626-35.615-94.726-80.033-122.758-132.847
				c-8.599-16.115-16.03-32.957-22.141-50.58c-3.823-11.026-7.177-22.344-10.088-33.923c-8.058-32.433-11.037-62.09-11.714-85.585
				c5.755,0.406,11.849,0.609,18.417,0.609c13.068,0,27.22-0.948,41.98-2.844c48.549-6.229,83.419-20.922,106.305-34.058
				c22.818,13.136,57.689,27.761,106.305,34.058c14.76,1.896,28.844,2.844,41.981,2.844c6.499,0,12.661-0.203,18.416-0.609
				c-0.745,23.495-3.656,53.22-11.714,85.585c-2.911,11.579-6.265,22.897-10.089,33.923c-6.111,17.622-13.542,34.465-22.141,50.58
				C1158.941,1836.976,1117.909,1881.394,1064.282,1917.009z M1064.282,342.348c-401.045,0-726.121,325.075-726.121,726.121
				c0,338.888,232.245,623.608,546.283,703.573c29.183,69.809,82.877,143.545,179.837,199.744
				c96.961-56.267,150.587-129.935,179.838-199.744c313.971-79.966,546.216-364.685,546.216-703.573
				C1790.336,667.423,1465.261,342.348,1064.282,342.348z M1262.063,1719.77c25.053-92.017,12.527-166.228,12.527-166.228
				s-15.235,14.625-62.022,14.625c-10.428,0-22.345-0.677-36.022-2.437c-78.679-10.156-112.263-45.027-112.263-45.027
				s-33.584,34.871-112.263,45.027c-13.677,1.76-25.662,2.437-36.022,2.437c-46.787,0-62.022-14.625-62.022-14.625
				s-12.526,74.21,12.526,166.228c-279.235-84.84-482.906-344.711-482.906-651.301c0-375.384,305.304-680.688,680.688-680.688
				c375.316,0,680.688,305.304,680.688,680.688C1744.97,1374.991,1541.231,1634.93,1262.063,1719.77z"/>
			<polygon style="fill:#577D83;" points="1089.254,1641.797 1040.551,1641.797 1040.551,1719.811 962.538,1719.811 
				962.538,1768.513 1040.551,1768.513 1040.551,1846.527 1089.254,1846.527 1089.254,1768.513 1167.267,1768.513 
				1167.267,1719.811 1089.254,1719.811 			"/>
		</g>
		<g>
			<path style="fill:#51787E;" d="M1064.275,1915.27c-53.626-35.615-94.726-80.034-122.758-132.847
				c-8.599-16.115-16.03-32.957-22.141-50.579c-3.823-11.026-7.177-22.344-10.088-33.923c-8.058-32.433-11.037-62.09-11.714-85.585
				c5.755,0.406,11.849,0.609,18.417,0.609c13.068,0,27.22-0.948,41.98-2.844c48.549-6.229,83.419-20.922,106.305-34.058
				c22.818,13.136,57.689,27.761,106.305,34.058c14.761,1.896,28.845,2.844,41.981,2.844c6.499,0,12.662-0.203,18.416-0.609
				c-0.745,23.495-3.656,53.22-11.714,85.585c-2.911,11.579-6.265,22.897-10.089,33.923c-6.111,17.622-13.542,34.465-22.141,50.579
				C1158.933,1835.237,1117.901,1879.655,1064.275,1915.27z M1064.275,340.608c-401.045,0-726.121,325.075-726.121,726.121
				c0,338.888,232.245,623.608,546.284,703.573c29.183,69.809,82.877,143.545,179.837,199.744
				c96.961-56.267,150.587-129.935,179.838-199.744c313.971-79.966,546.216-364.685,546.216-703.573
				C1790.328,665.684,1465.254,340.608,1064.275,340.608z M1262.056,1718.031c25.053-92.017,12.527-166.227,12.527-166.227
				s-15.235,14.625-62.022,14.625c-10.428,0-22.345-0.677-36.022-2.437c-78.679-10.157-112.263-45.027-112.263-45.027
				s-33.584,34.871-112.263,45.027c-13.677,1.76-25.662,2.437-36.022,2.437c-46.787,0-62.022-14.625-62.022-14.625
				s-12.526,74.21,12.526,166.227c-279.236-84.84-482.907-344.711-482.907-651.301c0-375.384,305.304-680.688,680.688-680.688
				c375.316,0,680.688,305.304,680.688,680.688C1744.963,1373.252,1541.223,1633.191,1262.056,1718.031z"/>
			<polygon style="fill:#51787E;" points="1089.246,1640.058 1040.544,1640.058 1040.544,1718.072 962.53,1718.072 962.53,1766.774 
				1040.544,1766.774 1040.544,1844.788 1089.246,1844.788 1089.246,1766.774 1167.26,1766.774 1167.26,1718.072 1089.246,1718.072 
							"/>
		</g>
		<g>
			<path style="fill:#4B7379;" d="M1064.267,1913.531c-53.626-35.615-94.726-80.033-122.758-132.847
				c-8.599-16.115-16.031-32.957-22.141-50.579c-3.823-11.026-7.177-22.344-10.088-33.923c-8.058-32.433-11.037-62.09-11.714-85.585
				c5.755,0.406,11.849,0.609,18.417,0.609c13.068,0,27.22-0.948,41.98-2.844c48.549-6.229,83.419-20.922,106.305-34.058
				c22.818,13.136,57.689,27.761,106.305,34.058c14.761,1.896,28.845,2.844,41.981,2.844c6.499,0,12.662-0.203,18.416-0.609
				c-0.745,23.495-3.656,53.22-11.714,85.585c-2.911,11.579-6.265,22.897-10.089,33.923c-6.111,17.622-13.542,34.465-22.141,50.579
				C1158.926,1833.498,1117.894,1877.916,1064.267,1913.531z M1064.267,338.869c-401.045,0-726.121,325.075-726.121,726.121
				c0,338.888,232.245,623.608,546.283,703.573c29.183,69.809,82.877,143.545,179.837,199.744
				c96.961-56.267,150.587-129.935,179.838-199.744c313.971-79.966,546.216-364.685,546.216-703.573
				C1790.321,663.945,1465.246,338.869,1064.267,338.869z M1262.048,1716.292c25.053-92.017,12.527-166.228,12.527-166.228
				s-15.235,14.625-62.022,14.625c-10.428,0-22.345-0.677-36.022-2.437c-78.679-10.157-112.263-45.027-112.263-45.027
				s-33.584,34.871-112.263,45.027c-13.677,1.76-25.662,2.437-36.022,2.437c-46.787,0-62.022-14.625-62.022-14.625
				s-12.526,74.21,12.526,166.228c-279.235-84.84-482.907-344.711-482.907-651.301c0-375.384,305.304-680.688,680.688-680.688
				c375.316,0,680.688,305.304,680.688,680.688C1744.955,1371.513,1541.216,1631.452,1262.048,1716.292z"/>
			<polygon style="fill:#4B7379;" points="1089.239,1638.319 1040.536,1638.319 1040.536,1716.333 962.522,1716.333 
				962.522,1765.035 1040.536,1765.035 1040.536,1843.049 1089.239,1843.049 1089.239,1765.035 1167.252,1765.035 
				1167.252,1716.333 1089.239,1716.333 			"/>
		</g>
		<g>
			<path style="fill:#446E75;" d="M1064.26,1911.792c-53.626-35.615-94.726-80.033-122.758-132.847
				c-8.599-16.115-16.03-32.957-22.141-50.579c-3.823-11.026-7.177-22.344-10.088-33.923c-8.058-32.433-11.037-62.09-11.714-85.585
				c5.755,0.406,11.849,0.609,18.417,0.609c13.068,0,27.22-0.948,41.98-2.844c48.549-6.229,83.419-20.922,106.305-34.058
				c22.818,13.136,57.689,27.761,106.305,34.058c14.761,1.896,28.845,2.844,41.981,2.844c6.499,0,12.662-0.203,18.416-0.609
				c-0.745,23.495-3.656,53.22-11.714,85.585c-2.911,11.579-6.265,22.897-10.089,33.923c-6.111,17.622-13.542,34.465-22.141,50.579
				C1158.918,1831.759,1117.886,1876.177,1064.26,1911.792z M1064.26,337.13c-401.045,0-726.121,325.075-726.121,726.121
				c0,338.888,232.245,623.608,546.284,703.574c29.183,69.809,82.877,143.545,179.837,199.744
				c96.961-56.267,150.587-129.935,179.838-199.744c313.971-79.966,546.216-364.685,546.216-703.574
				C1790.313,662.206,1465.238,337.13,1064.26,337.13z M1262.04,1714.553c25.053-92.017,12.527-166.228,12.527-166.228
				s-15.235,14.625-62.022,14.625c-10.428,0-22.345-0.677-36.022-2.437c-78.679-10.156-112.263-45.027-112.263-45.027
				s-33.584,34.871-112.263,45.027c-13.677,1.76-25.662,2.437-36.022,2.437c-46.787,0-62.022-14.625-62.022-14.625
				s-12.526,74.21,12.526,166.228c-279.236-84.84-482.907-344.711-482.907-651.301c0-375.384,305.304-680.688,680.688-680.688
				c375.316,0,680.688,305.304,680.688,680.688C1744.948,1369.774,1541.208,1629.713,1262.04,1714.553z"/>
			<polygon style="fill:#446E75;" points="1089.231,1636.58 1040.529,1636.58 1040.529,1714.594 962.515,1714.594 962.515,1763.296 
				1040.529,1763.296 1040.529,1841.31 1089.231,1841.31 1089.231,1763.296 1167.244,1763.296 1167.244,1714.594 1089.231,1714.594 
							"/>
		</g>
		<g>
			<path style="fill:#3E6970;" d="M1064.252,1910.053c-53.626-35.615-94.726-80.033-122.758-132.847
				c-8.599-16.115-16.03-32.957-22.141-50.579c-3.823-11.026-7.177-22.344-10.088-33.923c-8.058-32.432-11.037-62.09-11.714-85.585
				c5.755,0.406,11.849,0.609,18.416,0.609c13.068,0,27.22-0.948,41.98-2.844c48.549-6.229,83.419-20.922,106.305-34.058
				c22.818,13.136,57.689,27.761,106.305,34.058c14.761,1.896,28.845,2.844,41.981,2.844c6.499,0,12.661-0.203,18.416-0.609
				c-0.745,23.495-3.656,53.22-11.714,85.585c-2.911,11.579-6.265,22.897-10.089,33.923c-6.111,17.622-13.542,34.465-22.141,50.579
				C1158.911,1830.02,1117.879,1874.438,1064.252,1910.053z M1064.252,335.391c-401.045,0-726.121,325.075-726.121,726.121
				c0,338.888,232.245,623.608,546.283,703.573c29.183,69.809,82.877,143.545,179.837,199.744
				c96.961-56.267,150.587-129.935,179.838-199.744c313.971-79.966,546.216-364.685,546.216-703.573
				C1790.305,660.466,1465.231,335.391,1064.252,335.391z M1262.033,1712.814c25.053-92.017,12.527-166.228,12.527-166.228
				s-15.235,14.625-62.022,14.625c-10.428,0-22.345-0.677-36.022-2.437c-78.679-10.157-112.263-45.027-112.263-45.027
				s-33.584,34.871-112.263,45.027c-13.677,1.76-25.662,2.437-36.022,2.437c-46.787,0-62.022-14.625-62.022-14.625
				s-12.526,74.21,12.526,166.228c-279.236-84.84-482.907-344.711-482.907-651.301c0-375.384,305.304-680.688,680.688-680.688
				c375.316,0,680.688,305.304,680.688,680.688C1744.94,1368.035,1541.2,1627.973,1262.033,1712.814z"/>
			<polygon style="fill:#3E6970;" points="1089.224,1634.841 1040.521,1634.841 1040.521,1712.855 962.507,1712.855 
				962.507,1761.557 1040.521,1761.557 1040.521,1839.571 1089.224,1839.571 1089.224,1761.557 1167.237,1761.557 
				1167.237,1712.855 1089.224,1712.855 			"/>
		</g>
		<g>
			<path style="fill:#38646B;" d="M1064.244,1908.314c-53.626-35.615-94.726-80.033-122.758-132.847
				c-8.599-16.115-16.03-32.957-22.141-50.58c-3.823-11.026-7.177-22.344-10.088-33.923c-8.058-32.433-11.037-62.09-11.714-85.585
				c5.755,0.406,11.849,0.609,18.416,0.609c13.068,0,27.22-0.948,41.98-2.844c48.549-6.229,83.419-20.922,106.305-34.058
				c22.818,13.136,57.689,27.761,106.305,34.058c14.761,1.896,28.845,2.844,41.981,2.844c6.499,0,12.662-0.203,18.416-0.609
				c-0.745,23.495-3.656,53.22-11.714,85.585c-2.911,11.579-6.265,22.897-10.089,33.923c-6.111,17.622-13.542,34.465-22.141,50.58
				C1158.903,1828.281,1117.871,1872.699,1064.244,1908.314z M1064.244,333.652c-401.045,0-726.121,325.075-726.121,726.121
				c0,338.888,232.245,623.608,546.284,703.573c29.183,69.809,82.877,143.545,179.837,199.744
				c96.961-56.267,150.587-129.935,179.838-199.744c313.971-79.966,546.216-364.685,546.216-703.573
				C1790.298,658.727,1465.223,333.652,1064.244,333.652z M1262.025,1711.075c25.053-92.017,12.527-166.228,12.527-166.228
				s-15.235,14.625-62.022,14.625c-10.428,0-22.345-0.677-36.022-2.437c-78.679-10.156-112.263-45.027-112.263-45.027
				s-33.584,34.871-112.263,45.027c-13.677,1.76-25.662,2.437-36.022,2.437c-46.787,0-62.022-14.625-62.022-14.625
				s-12.526,74.21,12.526,166.228c-279.236-84.84-482.907-344.711-482.907-651.301c0-375.384,305.304-680.688,680.688-680.688
				c375.316,0,680.688,305.304,680.688,680.688C1744.932,1366.296,1541.193,1626.234,1262.025,1711.075z"/>
			<polygon style="fill:#38646B;" points="1089.216,1633.102 1040.513,1633.102 1040.513,1711.116 962.5,1711.116 962.5,1759.818 
				1040.513,1759.818 1040.513,1837.832 1089.216,1837.832 1089.216,1759.818 1167.229,1759.818 1167.229,1711.116 
				1089.216,1711.116 			"/>
		</g>
		<g>
			<path style="fill:#326067;" d="M1064.237,1906.575c-53.626-35.615-94.726-80.033-122.758-132.847
				c-8.599-16.115-16.03-32.957-22.141-50.579c-3.823-11.026-7.177-22.344-10.088-33.923c-8.058-32.433-11.037-62.09-11.714-85.585
				c5.755,0.406,11.849,0.609,18.416,0.609c13.068,0,27.22-0.948,41.98-2.844c48.549-6.229,83.419-20.922,106.305-34.058
				c22.818,13.136,57.689,27.761,106.305,34.058c14.761,1.896,28.845,2.844,41.981,2.844c6.5,0,12.662-0.203,18.416-0.609
				c-0.745,23.495-3.656,53.22-11.714,85.585c-2.911,11.579-6.265,22.897-10.089,33.923c-6.111,17.622-13.542,34.465-22.141,50.579
				C1158.895,1826.542,1117.863,1870.96,1064.237,1906.575z M1064.237,331.913c-401.045,0-726.121,325.075-726.121,726.121
				c0,338.888,232.245,623.608,546.283,703.573c29.183,69.809,82.877,143.545,179.837,199.744
				c96.961-56.267,150.587-129.935,179.838-199.744c313.971-79.966,546.216-364.685,546.216-703.573
				C1790.29,656.988,1465.215,331.913,1064.237,331.913z M1262.017,1709.336c25.053-92.017,12.527-166.227,12.527-166.227
				s-15.235,14.625-62.022,14.625c-10.428,0-22.345-0.677-36.022-2.437c-78.679-10.157-112.263-45.027-112.263-45.027
				s-33.584,34.871-112.263,45.027c-13.677,1.76-25.662,2.437-36.022,2.437c-46.787,0-62.022-14.625-62.022-14.625
				s-12.526,74.21,12.526,166.227c-279.236-84.84-482.907-344.711-482.907-651.301c0-375.384,305.304-680.688,680.688-680.688
				c375.316,0,680.688,305.304,680.688,680.688C1744.925,1364.557,1541.185,1624.495,1262.017,1709.336z"/>
			<polygon style="fill:#326067;" points="1089.208,1631.363 1040.506,1631.363 1040.506,1709.377 962.492,1709.377 
				962.492,1758.079 1040.506,1758.079 1040.506,1836.093 1089.208,1836.093 1089.208,1758.079 1167.222,1758.079 
				1167.222,1709.377 1089.208,1709.377 			"/>
		</g>
		<g>
			<path style="fill:#2C5B62;" d="M1064.229,1904.836c-53.626-35.615-94.726-80.033-122.758-132.847
				c-8.599-16.115-16.031-32.957-22.141-50.579c-3.823-11.026-7.177-22.344-10.088-33.923c-8.058-32.433-11.037-62.09-11.714-85.585
				c5.755,0.406,11.849,0.609,18.416,0.609c13.068,0,27.22-0.948,41.98-2.844c48.549-6.229,83.419-20.922,106.305-34.058
				c22.818,13.136,57.689,27.761,106.305,34.058c14.761,1.896,28.845,2.844,41.981,2.844c6.5,0,12.662-0.203,18.416-0.609
				c-0.745,23.495-3.656,53.22-11.714,85.585c-2.911,11.579-6.265,22.897-10.089,33.923c-6.111,17.622-13.542,34.465-22.141,50.579
				C1158.888,1824.802,1117.856,1869.221,1064.229,1904.836z M1064.229,330.174c-401.045,0-726.121,325.075-726.121,726.121
				c0,338.888,232.245,623.608,546.284,703.573c29.183,69.809,82.877,143.545,179.837,199.745
				c96.961-56.267,150.587-129.935,179.838-199.745c313.971-79.966,546.216-364.685,546.216-703.573
				C1790.283,655.249,1465.208,330.174,1064.229,330.174z M1262.01,1707.597c25.053-92.017,12.527-166.228,12.527-166.228
				s-15.235,14.625-62.022,14.625c-10.428,0-22.345-0.677-36.022-2.437c-78.679-10.157-112.263-45.027-112.263-45.027
				s-33.584,34.871-112.263,45.027c-13.677,1.76-25.662,2.437-36.022,2.437c-46.787,0-62.022-14.625-62.022-14.625
				s-12.526,74.21,12.526,166.228c-279.236-84.84-482.907-344.711-482.907-651.301c0-375.384,305.304-680.688,680.688-680.688
				c375.316,0,680.688,305.304,680.688,680.688C1744.917,1362.818,1541.178,1622.756,1262.01,1707.597z"/>
			<polygon style="fill:#2C5B62;" points="1089.201,1629.624 1040.498,1629.624 1040.498,1707.638 962.484,1707.638 
				962.484,1756.34 1040.498,1756.34 1040.498,1834.354 1089.201,1834.354 1089.201,1756.34 1167.214,1756.34 1167.214,1707.638 
				1089.201,1707.638 			"/>
		</g>
		<g>
			<path style="fill:#25565E;" d="M1064.222,1903.097c-53.626-35.615-94.726-80.034-122.758-132.847
				c-8.599-16.115-16.031-32.957-22.141-50.579c-3.823-11.026-7.177-22.344-10.088-33.923c-8.058-32.433-11.037-62.09-11.714-85.585
				c5.755,0.406,11.849,0.609,18.416,0.609c13.068,0,27.22-0.948,41.98-2.844c48.549-6.229,83.419-20.922,106.305-34.058
				c22.818,13.136,57.689,27.761,106.305,34.058c14.761,1.896,28.845,2.844,41.981,2.844c6.499,0,12.661-0.203,18.416-0.609
				c-0.745,23.495-3.656,53.22-11.714,85.585c-2.911,11.579-6.265,22.897-10.089,33.923c-6.111,17.622-13.542,34.465-22.141,50.579
				C1158.88,1823.063,1117.848,1867.482,1064.222,1903.097z M1064.222,328.435c-401.045,0-726.121,325.075-726.121,726.121
				c0,338.888,232.245,623.608,546.283,703.574c29.183,69.809,82.877,143.545,179.837,199.744
				c96.961-56.267,150.587-129.935,179.838-199.744c313.971-79.966,546.216-364.685,546.216-703.574
				C1790.275,653.51,1465.2,328.435,1064.222,328.435z M1262.002,1705.858c25.053-92.017,12.527-166.228,12.527-166.228
				s-15.235,14.625-62.022,14.625c-10.428,0-22.345-0.677-36.022-2.437c-78.679-10.156-112.263-45.027-112.263-45.027
				s-33.584,34.871-112.263,45.027c-13.677,1.76-25.662,2.437-36.022,2.437c-46.787,0-62.022-14.625-62.022-14.625
				s-12.526,74.21,12.526,166.228c-279.236-84.84-482.907-344.711-482.907-651.301c0-375.384,305.304-680.688,680.688-680.688
				c375.316,0,680.688,305.304,680.688,680.688C1744.91,1361.079,1541.17,1621.017,1262.002,1705.858z"/>
			<polygon style="fill:#25565E;" points="1089.193,1627.885 1040.491,1627.885 1040.491,1705.899 962.477,1705.899 
				962.477,1754.601 1040.491,1754.601 1040.491,1832.615 1089.193,1832.615 1089.193,1754.601 1167.206,1754.601 
				1167.206,1705.899 1089.193,1705.899 			"/>
		</g>
		<g>
			<path style="fill:#1F5159;" d="M1064.214,1901.358c-53.626-35.615-94.726-80.033-122.758-132.847
				c-8.599-16.115-16.03-32.957-22.141-50.579c-3.823-11.026-7.177-22.344-10.088-33.923c-8.058-32.432-11.037-62.09-11.714-85.585
				c5.755,0.406,11.849,0.609,18.416,0.609c13.068,0,27.22-0.948,41.98-2.844c48.549-6.229,83.419-20.922,106.305-34.058
				c22.818,13.136,57.69,27.761,106.305,34.058c14.761,1.896,28.845,2.844,41.981,2.844c6.5,0,12.662-0.203,18.416-0.609
				c-0.745,23.495-3.656,53.22-11.714,85.585c-2.911,11.579-6.265,22.897-10.089,33.923c-6.111,17.622-13.542,34.465-22.141,50.579
				C1158.873,1821.324,1117.84,1865.743,1064.214,1901.358z M1064.214,326.696c-401.045,0-726.121,325.075-726.121,726.121
				c0,338.888,232.245,623.608,546.283,703.573c29.183,69.809,82.877,143.545,179.837,199.744
				c96.961-56.267,150.587-129.935,179.838-199.744c313.971-79.966,546.216-364.685,546.216-703.573
				C1790.267,651.771,1465.193,326.696,1064.214,326.696z M1261.995,1704.119c25.053-92.017,12.527-166.228,12.527-166.228
				s-15.235,14.625-62.022,14.625c-10.428,0-22.345-0.677-36.022-2.437c-78.679-10.157-112.263-45.027-112.263-45.027
				s-33.584,34.871-112.263,45.027c-13.677,1.76-25.662,2.437-36.022,2.437c-46.787,0-62.022-14.625-62.022-14.625
				s-12.526,74.21,12.526,166.228c-279.236-84.84-482.907-344.711-482.907-651.301c0-375.384,305.304-680.688,680.688-680.688
				c375.316,0,680.688,305.304,680.688,680.688C1744.902,1359.34,1541.162,1619.278,1261.995,1704.119z"/>
			<polygon style="fill:#1F5159;" points="1089.186,1626.146 1040.483,1626.146 1040.483,1704.16 962.469,1704.16 962.469,1752.862 
				1040.483,1752.862 1040.483,1830.875 1089.186,1830.875 1089.186,1752.862 1167.199,1752.862 1167.199,1704.16 1089.186,1704.16 
							"/>
		</g>
		<g>
			<path style="fill:#194C54;" d="M1064.206,1899.619c-53.626-35.615-94.726-80.033-122.758-132.847
				c-8.599-16.115-16.03-32.957-22.141-50.579c-3.823-11.026-7.177-22.344-10.088-33.923c-8.058-32.433-11.037-62.09-11.714-85.585
				c5.755,0.406,11.849,0.609,18.416,0.609c13.068,0,27.22-0.948,41.98-2.844c48.549-6.229,83.419-20.922,106.305-34.058
				c22.818,13.136,57.689,27.761,106.305,34.058c14.761,1.896,28.845,2.844,41.981,2.844c6.5,0,12.662-0.203,18.416-0.609
				c-0.745,23.495-3.656,53.22-11.714,85.585c-2.911,11.579-6.265,22.897-10.089,33.923c-6.111,17.622-13.542,34.465-22.141,50.579
				C1158.865,1819.585,1117.833,1864.003,1064.206,1899.619z M1064.206,324.957c-401.045,0-726.121,325.075-726.121,726.121
				c0,338.888,232.245,623.608,546.283,703.573c29.183,69.809,82.877,143.545,179.837,199.744
				c96.961-56.267,150.587-129.935,179.838-199.744c313.971-79.966,546.216-364.685,546.216-703.573
				C1790.26,650.032,1465.185,324.957,1064.206,324.957z M1261.987,1702.38c25.053-92.017,12.527-166.228,12.527-166.228
				s-15.235,14.625-62.022,14.625c-10.428,0-22.345-0.677-36.022-2.437c-78.679-10.156-112.263-45.027-112.263-45.027
				s-33.584,34.871-112.263,45.027c-13.677,1.76-25.662,2.437-36.022,2.437c-46.787,0-62.022-14.625-62.022-14.625
				s-12.526,74.21,12.526,166.228c-279.236-84.84-482.907-344.711-482.907-651.301c0-375.384,305.304-680.688,680.688-680.688
				c375.316,0,680.688,305.304,680.688,680.688C1744.895,1357.601,1541.155,1617.539,1261.987,1702.38z"/>
			<polygon style="fill:#194C54;" points="1089.178,1624.407 1040.475,1624.407 1040.475,1702.421 962.462,1702.421 
				962.462,1751.123 1040.475,1751.123 1040.475,1829.136 1089.178,1829.136 1089.178,1751.123 1167.191,1751.123 
				1167.191,1702.421 1089.178,1702.421 			"/>
		</g>
		<g>
			<path style="fill:#134750;" d="M1064.199,1897.88c-53.626-35.615-94.726-80.033-122.758-132.847
				c-8.599-16.115-16.03-32.957-22.141-50.579c-3.823-11.026-7.177-22.344-10.088-33.923c-8.058-32.433-11.037-62.09-11.714-85.585
				c5.755,0.406,11.849,0.609,18.416,0.609c13.068,0,27.22-0.948,41.98-2.844c48.549-6.229,83.419-20.922,106.305-34.058
				c22.818,13.136,57.689,27.761,106.305,34.058c14.761,1.896,28.845,2.844,41.981,2.844c6.5,0,12.662-0.203,18.416-0.609
				c-0.745,23.495-3.656,53.22-11.714,85.585c-2.912,11.579-6.265,22.897-10.089,33.923c-6.111,17.622-13.542,34.465-22.141,50.579
				C1158.857,1817.846,1117.825,1862.264,1064.199,1897.88z M1064.199,323.218c-401.045,0-726.121,325.075-726.121,726.121
				c0,338.888,232.245,623.608,546.283,703.573c29.183,69.809,82.877,143.545,179.837,199.744
				c96.961-56.267,150.587-129.935,179.838-199.744c313.971-79.966,546.216-364.685,546.216-703.573
				C1790.252,648.293,1465.177,323.218,1064.199,323.218z M1261.979,1700.64c25.053-92.017,12.527-166.227,12.527-166.227
				s-15.235,14.625-62.022,14.625c-10.428,0-22.345-0.677-36.022-2.437c-78.679-10.157-112.263-45.027-112.263-45.027
				s-33.584,34.871-112.263,45.027c-13.677,1.76-25.662,2.437-36.022,2.437c-46.787,0-62.022-14.625-62.022-14.625
				s-12.526,74.21,12.526,166.227c-279.236-84.84-482.907-344.711-482.907-651.301c0-375.384,305.304-680.688,680.688-680.688
				c375.316,0,680.688,305.304,680.688,680.688C1744.887,1355.862,1541.147,1615.8,1261.979,1700.64z"/>
			<polygon style="fill:#134750;" points="1089.171,1622.668 1040.468,1622.668 1040.468,1700.682 962.454,1700.682 
				962.454,1749.384 1040.468,1749.384 1040.468,1827.397 1089.171,1827.397 1089.171,1749.384 1167.184,1749.384 
				1167.184,1700.682 1089.171,1700.682 			"/>
		</g>
		<g>
			<path style="fill:#0C434B;" d="M1064.191,1896.141c-53.626-35.615-94.726-80.033-122.758-132.847
				c-8.599-16.115-16.03-32.957-22.141-50.579c-3.823-11.026-7.177-22.344-10.088-33.923c-8.058-32.433-11.037-62.09-11.714-85.585
				c5.755,0.406,11.849,0.609,18.416,0.609c13.068,0,27.22-0.948,41.98-2.844c48.549-6.229,83.419-20.922,106.305-34.058
				c22.818,13.136,57.69,27.761,106.305,34.058c14.761,1.896,28.845,2.844,41.981,2.844c6.5,0,12.662-0.203,18.417-0.609
				c-0.745,23.495-3.656,53.22-11.714,85.585c-2.912,11.579-6.265,22.897-10.089,33.923c-6.111,17.622-13.542,34.465-22.141,50.579
				C1158.85,1816.107,1117.818,1860.525,1064.191,1896.141z M1064.191,321.479c-401.045,0-726.121,325.075-726.121,726.121
				c0,338.888,232.245,623.608,546.283,703.573c29.183,69.809,82.877,143.545,179.837,199.744
				c96.961-56.267,150.587-129.935,179.838-199.744c313.971-79.966,546.216-364.685,546.216-703.573
				C1790.245,646.554,1465.17,321.479,1064.191,321.479z M1261.972,1698.901c25.053-92.017,12.527-166.228,12.527-166.228
				s-15.235,14.625-62.022,14.625c-10.428,0-22.344-0.677-36.022-2.437c-78.679-10.157-112.263-45.027-112.263-45.027
				s-33.584,34.871-112.263,45.027c-13.677,1.76-25.662,2.437-36.022,2.437c-46.787,0-62.022-14.625-62.022-14.625
				s-12.526,74.21,12.526,166.228c-279.236-84.84-482.907-344.711-482.907-651.301c0-375.384,305.304-680.688,680.688-680.688
				c375.316,0,680.688,305.304,680.688,680.688C1744.879,1354.123,1541.14,1614.061,1261.972,1698.901z"/>
			<polygon style="fill:#0C434B;" points="1089.163,1620.929 1040.46,1620.929 1040.46,1698.943 962.446,1698.943 962.446,1747.645 
				1040.46,1747.645 1040.46,1825.658 1089.163,1825.658 1089.163,1747.645 1167.176,1747.645 1167.176,1698.943 1089.163,1698.943 
							"/>
		</g>
		<g>
			<path style="fill:#063E47;" d="M1064.183,1894.402c-53.626-35.615-94.726-80.034-122.758-132.847
				c-8.599-16.115-16.031-32.957-22.141-50.579c-3.823-11.026-7.177-22.344-10.088-33.923c-8.058-32.433-11.037-62.09-11.714-85.585
				c5.755,0.406,11.849,0.609,18.416,0.609c13.068,0,27.22-0.948,41.98-2.844c48.549-6.229,83.419-20.922,106.305-34.058
				c22.818,13.136,57.69,27.761,106.305,34.058c14.761,1.896,28.845,2.844,41.981,2.844c6.5,0,12.662-0.203,18.416-0.609
				c-0.745,23.495-3.656,53.22-11.714,85.585c-2.912,11.579-6.265,22.897-10.089,33.923c-6.111,17.622-13.542,34.465-22.141,50.579
				C1158.842,1814.368,1117.81,1858.786,1064.183,1894.402z M1064.183,319.74c-401.045,0-726.121,325.075-726.121,726.121
				c0,338.888,232.245,623.608,546.283,703.574c29.183,69.809,82.877,143.545,179.837,199.744
				c96.961-56.267,150.587-129.935,179.838-199.744c313.971-79.966,546.216-364.685,546.216-703.574
				C1790.237,644.815,1465.162,319.74,1064.183,319.74z M1261.964,1697.162c25.053-92.017,12.527-166.228,12.527-166.228
				s-15.235,14.625-62.022,14.625c-10.428,0-22.345-0.677-36.022-2.437c-78.679-10.156-112.264-45.027-112.264-45.027
				s-33.584,34.871-112.263,45.027c-13.677,1.76-25.662,2.437-36.022,2.437c-46.787,0-62.022-14.625-62.022-14.625
				s-12.526,74.21,12.526,166.228c-279.236-84.84-482.907-344.711-482.907-651.301c0-375.384,305.304-680.688,680.688-680.688
				c375.316,0,680.688,305.304,680.688,680.688C1744.872,1352.384,1541.132,1612.322,1261.964,1697.162z"/>
			<polygon style="fill:#063E47;" points="1089.155,1619.19 1040.453,1619.19 1040.453,1697.204 962.439,1697.204 962.439,1745.906 
				1040.453,1745.906 1040.453,1823.919 1089.155,1823.919 1089.155,1745.906 1167.168,1745.906 1167.168,1697.204 
				1089.155,1697.204 			"/>
		</g>
		<g>
			<path style="fill:#003942;" d="M1064.176,1892.663c-53.626-35.615-94.726-80.033-122.758-132.847
				c-8.599-16.115-15.979-32.975-22.141-50.579c-3.791-11.037-7.177-22.344-10.088-33.923c-8.058-32.433-11.037-62.09-11.714-85.585
				c5.755,0.406,11.849,0.609,18.416,0.609c13.068,0,27.22-0.948,41.98-2.844c48.549-6.229,83.419-20.922,106.305-34.058
				c22.818,13.136,57.69,27.761,106.305,34.058c14.761,1.896,28.845,2.844,41.981,2.844c6.5,0,12.662-0.203,18.416-0.609
				c-0.745,23.495-3.656,53.22-11.714,85.585c-2.911,11.579-6.297,22.886-10.089,33.923c-6.161,17.605-13.542,34.465-22.141,50.579
				C1158.835,1812.629,1117.802,1857.047,1064.176,1892.663z M1064.176,318.001c-401.045,0-726.121,325.075-726.121,726.121
				c0,338.888,232.245,623.608,546.283,703.573c29.183,69.809,82.877,143.545,179.837,199.744
				c96.961-56.267,150.587-129.935,179.838-199.744c313.971-79.966,546.216-364.685,546.216-703.573
				C1790.229,643.076,1465.155,318.001,1064.176,318.001z M1261.957,1695.423c25.053-92.017,12.527-166.228,12.527-166.228
				s-15.235,14.625-62.022,14.625c-10.428,0-22.345-0.677-36.022-2.437c-78.679-10.157-112.264-45.027-112.264-45.027
				s-33.584,34.871-112.263,45.027c-13.677,1.76-25.662,2.437-36.022,2.437c-46.787,0-62.022-14.625-62.022-14.625
				s-12.526,74.21,12.526,166.228c-279.236-84.84-482.907-344.711-482.907-651.301c0-375.384,305.304-680.688,680.688-680.688
				c375.316,0,680.688,305.304,680.688,680.688C1744.864,1350.645,1541.125,1610.583,1261.957,1695.423z"/>
			<polygon style="fill:#003942;" points="1089.148,1617.451 1040.445,1617.451 1040.445,1695.464 962.431,1695.464 
				962.431,1744.167 1040.445,1744.167 1040.445,1822.18 1089.148,1822.18 1089.148,1744.167 1167.161,1744.167 1167.161,1695.464 
				1089.148,1695.464 			"/>
		</g>
	</g>
	<g>
		<path style="fill:#003942;" d="M1064.176,318.001c-401.045,0-726.121,325.075-726.121,726.121
			c0,338.888,232.245,623.608,546.283,703.573c29.183,69.809,82.877,143.545,179.837,199.744
			c96.961-56.267,150.587-129.935,179.838-199.744c313.971-79.966,546.216-364.685,546.216-703.573
			C1790.229,643.076,1465.155,318.001,1064.176,318.001z M1064.176,1892.663c-53.626-35.615-94.726-80.033-122.758-132.847
			c-8.599-16.115-15.979-32.975-22.141-50.579c-3.791-11.037-7.177-22.344-10.088-33.923c-8.058-32.433-11.037-62.09-11.714-85.585
			c5.755,0.406,11.849,0.609,18.416,0.609c13.068,0,27.22-0.948,41.98-2.844c48.549-6.229,83.419-20.922,106.305-34.058
			c22.818,13.136,57.69,27.761,106.305,34.058c14.761,1.896,28.845,2.844,41.981,2.844c6.5,0,12.662-0.203,18.416-0.609
			c-0.745,23.495-3.656,53.22-11.714,85.585c-2.911,11.579-6.297,22.886-10.089,33.923c-6.161,17.605-13.542,34.465-22.141,50.579
			C1158.835,1812.629,1117.802,1857.047,1064.176,1892.663z M1261.957,1695.423c25.053-92.017,12.527-166.228,12.527-166.228
			s-15.235,14.625-62.022,14.625c-10.428,0-22.345-0.677-36.022-2.437c-78.679-10.157-112.264-45.027-112.264-45.027
			s-33.584,34.871-112.263,45.027c-13.677,1.76-25.662,2.437-36.022,2.437c-46.787,0-62.022-14.625-62.022-14.625
			s-12.526,74.21,12.526,166.228c-279.236-84.84-482.907-344.711-482.907-651.301c0-375.384,305.304-680.688,680.688-680.688
			c375.316,0,680.688,305.304,680.688,680.688C1744.864,1350.645,1541.125,1610.583,1261.957,1695.423z"/>
		<polygon style="fill:#003942;" points="1089.148,1617.451 1040.445,1617.451 1040.445,1695.464 962.431,1695.464 
			962.431,1744.167 1040.445,1744.167 1040.445,1822.18 1089.148,1822.18 1089.148,1744.167 1167.161,1744.167 1167.161,1695.464 
			1089.148,1695.464 		"/>
	</g>
</g>
</svg>
